<?xml version="1.0" standalone="no"?><!DOCTYPE svg PUBLIC "-//W3C//DTD SVG 1.1//EN" "http://www.w3.org/Graphics/SVG/1.1/DTD/svg11.dtd"><svg t="1555035810693" class="icon" style="" viewBox="0 0 1024 1024" version="1.1" xmlns="http://www.w3.org/2000/svg" p-id="2354" xmlns:xlink="http://www.w3.org/1999/xlink" width="64" height="64"><defs><style type="text/css"></style></defs><path d="M935.488886 323.841204l-25.548394-25.550114c-50.114554 32.468754-117.757936 26.743932-161.678054-17.176186-43.921838-43.921838-49.64666-111.56866-17.179627-161.678054l-31.333422-31.333423c-51.442548-51.442548-134.837791-51.442548-186.280339 0L87.621771 513.955866c-51.442548 51.435667-51.442548 134.842951 0 186.278619l31.331703 31.331702c50.111114-32.463594 117.757936-26.745652 161.679774 17.176186 43.921838 43.920118 49.64322 111.573821 17.181347 161.683215l25.543233 25.550114c51.442548 51.435667 134.841231 51.435667 186.282059 0l425.848999-425.854159c51.440828-51.440828 51.440828-134.844671 0-186.280339zM370.413869 591.275366c-9.547104 9.548824-25.023733 9.548824-34.565677 0-9.545384-9.538503-9.545384-25.016853 0-34.565676l234.757264-234.758984c9.548824-9.547104 25.022013-9.547104 34.569117 0 9.541943 9.547104 9.541943 25.020293 0 34.567396L370.410429 591.275366h0.00344z m93.616665 93.614944c-9.547104 9.548824-25.023733 9.548824-34.565677 0-9.547104-9.540223-9.547104-25.018573 0-34.563956L664.222121 415.56565c9.541943-9.545384 25.023733-9.545384 34.569117 0 9.541943 9.547104 9.541943 25.025454 0 34.567397L464.030534 684.89031z m0 0" fill="#FF7517" p-id="2355"></path></svg>