<?xml version="1.0" standalone="no"?><!DOCTYPE svg PUBLIC "-//W3C//DTD SVG 1.1//EN" "http://www.w3.org/Graphics/SVG/1.1/DTD/svg11.dtd"><svg t="1554886538111" class="icon" style="" viewBox="0 0 1091 1024" version="1.1" xmlns="http://www.w3.org/2000/svg" p-id="2216" xmlns:xlink="http://www.w3.org/1999/xlink" width="136.375" height="128"><defs><style type="text/css"></style></defs><path d="M1052.201967 551.382033H38.962361C17.458361 551.382033 0 533.755803 0 512c0-21.72223 17.458361-39.39882 38.979148-39.39882H1052.201967c21.554361 0 38.962361 17.67659 38.962361 39.39882 0 21.739016-17.408 39.382033-38.945574 39.382033zM935.298098 1024H720.459541a39.163803 39.163803 0 0 1-38.995934-39.382033c0-21.77259 17.458361-39.415607 38.995934-39.415606h214.855344c21.504 0 38.912-17.62623 38.912-39.365246V708.910164a39.147016 39.147016 0 0 1 38.995935-39.382033 39.113443 39.113443 0 0 1 38.96236 39.382033v196.910164c0 65.149902-52.44223 118.162885-116.870295 118.162885zM377.872787 1024H155.883016c-64.461639 0-116.903869-53.012984-116.903868-118.179672V708.910164a39.163803 39.163803 0 0 1 38.979147-39.365246c21.520787 0 38.945574 17.592656 38.945574 39.382033v196.910164c0 21.739016 17.508721 39.365246 38.979147 39.365246h222.006558c21.554361 0 38.995934 17.62623 38.995934 39.415606A39.163803 39.163803 0 0 1 377.889574 1024zM77.958295 354.455082c-21.504 0-38.979148-17.643016-38.979147-39.39882V118.146098C38.979148 52.996197 91.421377 0 155.883016 0H377.872787c21.554361 0 39.012721 17.659803 39.012721 39.39882a39.197377 39.197377 0 0 1-39.012721 39.348459H155.883016c-21.487213 0-38.979148 17.693377-38.979147 39.398819v196.910164c0 21.755803-17.424787 39.39882-38.945574 39.39882z m935.264525 0c-21.554361 0-38.995934-17.643016-38.995935-39.39882V118.146098c0-21.705443-17.408-39.39882-38.928787-39.398819H720.459541a39.197377 39.197377 0 0 1-38.995934-39.348459C681.463607 17.62623 698.90518 0 720.459541 0h214.855344c64.428066 0 116.870295 52.996197 116.870295 118.146098v196.910164c0 21.755803-17.408 39.39882-38.945573 39.39882z" fill="#FF7517" p-id="2217"></path></svg>