<?xml version="1.0" standalone="no"?><!DOCTYPE svg PUBLIC "-//W3C//DTD SVG 1.1//EN" "http://www.w3.org/Graphics/SVG/1.1/DTD/svg11.dtd"><svg t="1555120974443" class="icon" style="" viewBox="0 0 1024 1024" version="1.1" xmlns="http://www.w3.org/2000/svg" p-id="1966" xmlns:xlink="http://www.w3.org/1999/xlink" width="64" height="64"><defs><style type="text/css"></style></defs><path d="M890.514286 563.2l-87.771429-73.142857c-10.971429-9.142857-27.428571-14.628571-42.057143-14.628572H621.714286v-42.057142h115.2c36.571429 0 65.828571-29.257143 65.828571-64v-146.285715c0-34.742857-29.257143-64-65.828571-64H621.714286V120.685714c0-34.742857-31.085714-64-67.657143-64h-102.4C415.085714 54.857143 384 84.114286 384 118.857143v38.4h-138.971429c-14.628571 0-31.085714 5.485714-42.057142 14.628571l-87.771429 73.142857c-14.628571 12.8-23.771429 31.085714-23.771429 49.371429 0 18.285714 9.142857 36.571429 23.771429 49.371429l87.771429 73.142857c10.971429 9.142857 27.428571 14.628571 42.057142 14.628571H384V475.428571h-115.2c-36.571429 0-65.828571 29.257143-65.828571 64v146.285715c0 34.742857 29.257143 64 65.828571 64H384v155.428571c0 34.742857 31.085714 64 67.657143 64h102.4c38.4 0 67.657143-29.257143 67.657143-64V749.714286h138.971428c14.628571 0 31.085714-5.485714 42.057143-14.628572l87.771429-73.142857c14.628571-12.8 23.771429-29.257143 23.771428-49.371428s-9.142857-36.571429-23.771428-49.371429zM438.857143 155.428571v-36.571428c0-3.657143 5.485714-9.142857 12.8-9.142857h102.4c9.142857 0 12.8 5.485714 12.8 9.142857v38.4h-128v-1.828572z m-201.142857 219.428572l-87.771429-73.142857c-1.828571-1.828571-3.657143-5.485714-3.657143-7.314286 0-1.828571 0-3.657143 3.657143-7.314286l87.771429-73.142857c1.828571-1.828571 3.657143-1.828571 7.314285-1.828571h493.714286c5.485714 0 9.142857 3.657143 9.142857 9.142857v146.285714c0 5.485714-3.657143 9.142857-9.142857 9.142857h-493.714286c-3.657143 0-5.485714 0-7.314285-1.828571z m329.142857 56.685714v32.914286h-128v-32.914286h128z m0 473.6c0 3.657143-5.485714 9.142857-12.8 9.142857h-102.4c-7.314286 0-12.8-5.485714-12.8-9.142857V749.714286h128v155.428571z m288.914286-287.085714l-87.771429 73.142857c-1.828571 1.828571-3.657143 1.828571-7.314286 1.828571H268.8c-5.485714 0-9.142857-3.657143-9.142857-9.142857v-146.285714c0-5.485714 3.657143-9.142857 9.142857-9.142857h491.885714c1.828571 0 5.485714 0 7.314286 1.828571l87.771429 73.142857c1.828571 1.828571 3.657143 5.485714 3.657142 7.314286 0 3.657143 0 5.485714-3.657142 7.314286z" p-id="1967" fill="#61BE0D"></path></svg>