<?xml version="1.0" standalone="no"?><!DOCTYPE svg PUBLIC "-//W3C//DTD SVG 1.1//EN" "http://www.w3.org/Graphics/SVG/1.1/DTD/svg11.dtd"><svg t="1554883537396" class="icon" style="" viewBox="0 0 1024 1024" version="1.1" xmlns="http://www.w3.org/2000/svg" p-id="58672" xmlns:xlink="http://www.w3.org/1999/xlink" width="128" height="128"><defs><style type="text/css"></style></defs><path d="M978.944 604.16v18.432-18.432z m-38.912 98.304H282.624c-65.536 0-102.4 26.624-100.352 90.112 0 67.584 36.864 83.968 100.352 83.968h657.408c12.288 0 24.576-2.048 38.912-2.048-45.056-67.584-53.248-102.4-2.048-172.032h-36.864z m12.288 241.664c-223.232-2.048-446.464 2.048-669.696 2.048-88.064 0-133.12-24.576-155.648-104.448-24.576-81.92 6.144-159.744 69.632-192.512 20.48-12.288 49.152-14.336 73.728-14.336 223.232 0 436.224-2.048 659.456 0l51.2-28.672V126.976c0-69.632-28.672-108.544-86.016-114.688h-192.512v407.552L614.4 321.536c-26.624 34.816-26.624 34.816-69.632 81.92-10.24 12.288-10.24 8.192-18.432 16.384V10.24H190.464c-30.72 4.096-49.152 10.24-59.392 14.336-61.44 26.624-86.016 63.488-86.016 129.024-2.048 227.328-2.048 454.656 0 681.984 4.096 55.296 20.48 77.824 32.768 106.496 16.384 36.864 61.44 71.68 104.448 71.68h776.192c10.24 0 30.72-12.288 30.72-28.672-4.096-22.528-18.432-40.96-36.864-40.96z m0 0" fill="#ff8e3c" p-id="58673"></path></svg>