<?xml version="1.0" standalone="no"?><!DOCTYPE svg PUBLIC "-//W3C//DTD SVG 1.1//EN" "http://www.w3.org/Graphics/SVG/1.1/DTD/svg11.dtd"><svg t="1554883990831" class="icon" style="" viewBox="0 0 1024 1024" version="1.1" xmlns="http://www.w3.org/2000/svg" p-id="76665" xmlns:xlink="http://www.w3.org/1999/xlink" width="128" height="128"><defs><style type="text/css"></style></defs><path d="M0 153.088C0 68.608 68.608 0 153.088 0H870.4c84.992 0 153.6 68.608 153.6 153.088V870.4c0 84.48-68.608 153.088-153.088 153.088H153.088C68.608 1024 0 955.392 0 870.912V153.088z" fill="#F39826" p-id="76666"></path><path d="M651.264 322.048c-2.56 0-5.632-1.024-7.68-3.072-4.096-4.096-4.096-10.752 0-14.848l91.136-91.136c4.096-4.096 10.752-4.096 14.848 0 4.096 4.096 4.096 10.752 0 14.848l-91.136 91.136c-2.048 2.048-4.608 3.072-7.168 3.072z m79.872 43.52c-2.56 0-5.632-1.024-7.68-3.072-4.096-4.096-4.096-10.752 0-14.848l29.696-29.184c4.096-4.096 10.752-4.096 14.848 0 4.096 4.096 4.096 10.752 0 14.848l-29.696 29.184c-1.536 2.048-4.096 3.072-7.168 3.072z m-491.008 321.536c-2.56 0-5.632-1.024-7.68-3.072-4.096-4.096-4.096-10.752 0-14.848l40.448-39.936c4.096-4.096 10.752-4.096 14.848 0 4.096 4.096 4.096 10.752 0 14.848l-40.448 39.936c-2.048 2.048-4.608 3.072-7.168 3.072z m-53.76 52.736c-2.56 0-5.632-1.024-7.68-3.072-4.096-4.096-4.096-10.752 0-14.848l24.064-23.552c4.096-4.096 10.752-4.096 14.848 0 4.096 4.096 4.096 10.752 0 14.848l-24.064 23.552c-2.048 2.048-4.608 3.072-7.168 3.072z m615.936-255.488c8.704-9.728 11.264-23.04 7.168-34.816-4.096-12.288-13.312-20.48-26.112-23.552l-155.648-32.768c-6.144-1.536-10.24-4.608-13.312-9.216l-79.36-137.728c-6.656-11.264-17.408-17.408-30.208-17.408-13.312 0-24.576 6.656-30.208 17.408L393.728 384c-2.56 4.608-6.656 7.68-12.288 9.216L225.28 425.984c-12.8 3.072-22.528 11.776-26.112 23.552-4.096 12.288-1.536 25.6 7.168 34.816l106.496 118.784c3.584 3.584 5.632 8.704 4.608 14.336l-16.384 157.696c-1.536 13.312 3.584 25.088 13.824 32.256 10.24 7.68 23.552 9.216 35.328 3.584l145.408-64c5.632-2.56 10.752-2.56 15.872 0l145.92 64c4.608 2.048 9.728 3.584 14.848 3.584 7.168 0 14.336-2.56 20.48-6.656 10.24-7.168 15.36-18.944 14.336-32.256l-16.384-158.208c-0.512-5.12 1.024-10.24 4.608-14.336l107.008-118.784z" fill="#FFFFFF" p-id="76667"></path></svg>