<?xml version="1.0" standalone="no"?><!DOCTYPE svg PUBLIC "-//W3C//DTD SVG 1.1//EN" "http://www.w3.org/Graphics/SVG/1.1/DTD/svg11.dtd"><svg t="1555036305802" class="icon" style="" viewBox="0 0 1024 1024" version="1.1" xmlns="http://www.w3.org/2000/svg" p-id="16098" xmlns:xlink="http://www.w3.org/1999/xlink" width="64" height="64"><defs><style type="text/css"></style></defs><path d="M259.413333 762.88v110.933333c3.413333 25.6 23.893333 42.666667 49.493334 42.666667h411.306666c23.893333 0 44.373333-25.6 44.373334-51.2v-110.933333H259.413333v8.533333z m651.946667-384c-8.533333-25.6-20.48-46.08-35.84-63.146667-17.066667-20.48-35.84-37.546667-64.853333-46.08-35.84-11.946667-69.973333-8.533333-102.4 3.413334-3.413333 0-8.533333 3.413333-11.946667 3.413333-40.96-80.213333-102.4-128-187.733333-128s-146.773333 42.666667-182.613334 128c-40.96-20.48-85.333333-25.6-129.706666-3.413333s-73.386667 54.613333-85.333334 105.813333c-11.946667 46.08-3.413333 88.746667 17.066667 128C153.6 563.2 203.093333 583.68 256 588.8v105.813333h508.586667v-110.933333h3.413333c17.066667 0 29.013333-3.413333 44.373333-8.533333 35.84-11.946667 64.853333-34.133333 81.92-71.68 17.066667-29.013333 20.48-63.146667 20.48-97.28 3.413333-5.12 0-18.773333-3.413333-27.306667z" fill="#35B4E4" p-id="16099"></path></svg>