<?xml version="1.0" standalone="no"?><!DOCTYPE svg PUBLIC "-//W3C//DTD SVG 1.1//EN" "http://www.w3.org/Graphics/SVG/1.1/DTD/svg11.dtd"><svg t="1562180767498" class="icon" viewBox="0 0 1228 1024" version="1.1" xmlns="http://www.w3.org/2000/svg" p-id="20798" xmlns:xlink="http://www.w3.org/1999/xlink" width="153.5" height="128"><defs><style type="text/css"></style></defs><path d="M873.731793 347.748862c-18.688091 0-36.710285-2.985798-53.594009-8.463343l-187.117199 326.268298a207.223008 207.223008 0 0 1 64.742422 150.729122c0 114.727696-92.989365 207.738541-207.738542 207.738542s-207.760022-93.010845-207.760021-207.738542c0-51.231147 18.537727-98.101739 49.254934-134.29649L215.223601 575.722095a135.671247 135.671247 0 1 1 49.126052-41.264165l115.586918 105.598456a206.857838 206.857838 0 0 1 110.066414-31.511988c32.435653 0 63.15286 7.410795 90.519099 20.664303l183.70179-320.2967a173.82073 173.82073 0 0 1 109.507919-308.826079 173.84221 173.84221 0 1 1 0 347.66294z" fill="#BFCBD9" p-id="20799"></path></svg>