<?xml version="1.0" standalone="no"?><!DOCTYPE svg PUBLIC "-//W3C//DTD SVG 1.1//EN" "http://www.w3.org/Graphics/SVG/1.1/DTD/svg11.dtd"><svg t="1562180100607" class="icon" viewBox="0 0 1210 1024" version="1.1" xmlns="http://www.w3.org/2000/svg" p-id="18602" xmlns:xlink="http://www.w3.org/1999/xlink" width="151.25" height="128"><defs><style type="text/css"></style></defs><path d="M1122.490182 0.186182H347.694545a87.133091 87.133091 0 0 0-86.760727 86.853818c0 47.662545 39.098182 86.853818 86.760727 86.853818h774.795637c47.755636 0 86.853818-39.098182 86.853818-86.853818a87.133091 87.133091 0 0 0-86.853818-86.853818z m0 387.258182H347.694545a87.133091 87.133091 0 0 0-86.760727 86.853818c0 47.662545 39.098182 86.853818 86.760727 86.853818h774.795637c47.755636 0 86.853818-39.098182 86.853818-86.853818a87.133091 87.133091 0 0 0-86.853818-86.853818z m0 390.702545H347.694545a87.133091 87.133091 0 0 0-86.760727 86.760727c0 47.755636 39.098182 86.853818 86.760727 86.853819h774.795637c47.755636 0 86.853818-39.098182 86.853818-86.853819a87.133091 87.133091 0 0 0-86.853818-86.760727zM86.202182 1.582545a85.829818 85.829818 0 0 0-85.643637 85.643637v2.420363c0 47.104 38.632727 85.643636 85.643637 85.643637 47.104 0 85.643636-38.632727 85.643636-85.643637V87.133091a85.829818 85.829818 0 0 0-85.643636-85.643636z m0 387.258182a85.829818 85.829818 0 0 0-85.643637 85.643637v2.420363c0 47.104 38.632727 85.643636 85.643637 85.643637 47.104 0 85.643636-38.632727 85.643636-85.643637v-2.513454a85.829818 85.829818 0 0 0-85.643636-85.643637z m0 390.609455a85.829818 85.829818 0 0 0-85.643637 85.643636v2.420364c0 47.197091 38.632727 85.643636 85.643637 85.643636 47.104 0 85.643636-38.632727 85.643636-85.643636v-2.420364a85.829818 85.829818 0 0 0-85.643636-85.643636z" fill="#BFCBD9" p-id="18603"></path></svg>