<?xml version="1.0" standalone="no"?><!DOCTYPE svg PUBLIC "-//W3C//DTD SVG 1.1//EN" "http://www.w3.org/Graphics/SVG/1.1/DTD/svg11.dtd"><svg t="1562212636575" class="icon" viewBox="0 0 1109 1024" version="1.1" xmlns="http://www.w3.org/2000/svg" p-id="2207" xmlns:xlink="http://www.w3.org/1999/xlink" width="138.625" height="128"><defs><style type="text/css"></style></defs><path d="M1104.952631 435.740729c-4.315297-23.894325-27.600896-48.024007-51.752758-53.358365l-17.863753-4.125532c-91.422192-27.286675-145.386818-119.936177-123.088241-211.375621l5.301087-16.737487c7.266507-23.162375-2.097269-55.179612-20.82482-70.942399 0 0-17.001186-14.067228-64.929078-41.233143C783.985471 10.681506 763.166812 3.285614 763.166812 3.285614c-23.166072-8.2486-55.938671-0.365975-72.82033 17.460811L677.780121 34.087865c-69.368831 64.517511-177.916666 64.395519-247.159809-0.365975l-12.075931-12.975465C401.912866 3.041631 369.136571-4.842227 345.852204 3.408838c0 0-20.82482 7.394659-68.752712 34.681335-47.803436 27.164684-64.685095 41.233144-64.685095 41.233144-18.727551 15.640795-28.340239 47.53604-20.944347 70.942399l5.172935 16.855782c22.302273 91.560203-31.910032 184.331696-123.581137 211.257325l-17.495313 4.003541c-24.02371 5.334358-47.309309 29.462808-51.624606 53.358365 0 0-3.941929 21.463119-3.941929 76.037702 0 54.569654 3.943161 75.915711 3.943161 75.915711 4.314065 23.889396 27.599664 48.022774 51.623374 53.597419l17.004882 3.764487c92.037079 26.797477 146.498296 119.934945 123.947111 211.735434l-5.172934 16.615495c-7.393427 23.162375 2.09234 55.180844 20.944347 70.942399 0 0 16.881659 14.06846 64.685095 41.356368 47.929124 27.285443 68.629488 34.681335 68.629488 34.681335 23.166072 8.249833 55.938671 0.365975 72.819098-17.33882l11.94901-12.735178c69.490823-64.879789 178.410793-64.879789 247.901616 0l11.824555 12.735178c16.881659 17.704794 49.411507 25.705714 72.819097 17.337587 0 0 20.701596-7.516651 68.753944-34.680102 47.803436-27.287908 64.686327-41.356368 64.686328-41.356368 18.726319-15.640795 28.090095-47.6568 20.943114-70.942399l-5.29739-17.098533c-21.687387-91.804186 32.649375-184.453687 124.319247-211.37562v-0.12076l17.001186-3.881549c24.146933-5.457582 47.437461-29.468969 51.747829-53.358364 0 0 3.941929-21.46928 3.941929-76.038935-0.119527-54.329368-4.061456-75.792487-4.061456-75.792487zM431.233967 387.955776c69.740967-68.638114 182.846849-68.638114 252.581655 0.12076 69.738503 68.760106 69.738503 179.968342-0.119527 248.606455-69.862959 68.641811-182.845617 68.641811-252.58412-0.117062-69.612814-68.643043-69.612814-179.84635 0.123224-248.610153z" p-id="2208" fill="#BFCBD9"></path></svg>