<?xml version="1.0" standalone="no"?><!DOCTYPE svg PUBLIC "-//W3C//DTD SVG 1.1//EN" "http://www.w3.org/Graphics/SVG/1.1/DTD/svg11.dtd"><svg t="1562178208842" class="icon" viewBox="0 0 1365 1024" version="1.1" xmlns="http://www.w3.org/2000/svg" p-id="11036" xmlns:xlink="http://www.w3.org/1999/xlink" width="170.625" height="128"><defs><style type="text/css"></style></defs><path d="M1253.831111 641.820444c40.391111 13.653333 67.584 51.768889 67.413333 94.492445v186.936889c0 55.011556-44.600889 99.555556-99.669333 99.555555H143.758222a99.612444 99.612444 0 0 1-99.669333-99.555555v-187.335111a99.612444 99.612444 0 0 1 66.673778-94.378667c17.92-5.802667 34.133333-15.701333 47.502222-28.899556a125.610667 125.610667 0 0 0 0-176.071111 122.197333 122.197333 0 0 0-47.502222-29.013333A99.84 99.84 0 0 1 44.088889 313.230222V126.293333c0-55.011556 44.600889-99.555556 99.669333-99.555555h1077.816889c55.068444 0 99.669333 44.544 99.669333 99.555555v186.481778c0.113778 42.666667-27.022222 80.782222-67.470222 94.492445-18.204444 5.802667-34.702222 15.815111-48.241778 29.184a125.610667 125.610667 0 0 0 0 176.128c13.539556 13.368889 30.094222 23.438222 48.241778 29.240888z m-392.362667-308.622222H503.864889a51.086222 51.086222 0 1 0 0 102.172445h357.603555a51.086222 51.086222 0 1 0 0-102.172445z m0 280.974222H503.864889a51.086222 51.086222 0 1 0 0 102.172445h357.603555a51.086222 51.086222 0 1 0 0-102.172445z" p-id="11037" fill="#BFCBD9"></path></svg>