<?xml version="1.0" standalone="no"?><!DOCTYPE svg PUBLIC "-//W3C//DTD SVG 1.1//EN" "http://www.w3.org/Graphics/SVG/1.1/DTD/svg11.dtd"><svg t="1562179585921" class="icon" viewBox="0 0 1024 1024" version="1.1" xmlns="http://www.w3.org/2000/svg" p-id="11872" xmlns:xlink="http://www.w3.org/1999/xlink" width="128" height="128"><defs><style type="text/css"></style></defs><path d="M962.142809 864.313331c2.374831 0 2.374831 2.374831 4.874652 2.374831 4.374688 1.874866 7.749447 5.374617 9.624313 9.749304v12.124135c-0.499964 5.124634-2.124848 10.124278-4.874652 14.623957-1.874866 4.374688-4.249697 8.499394-7.249483 12.124135-1.249911 4.249697-5.124634 7.249483-9.624313 7.249482-2.874795 1.874866-6.249554 2.749804-9.624313 2.374831-2.624813 0.374973-5.249625-0.499964-7.249483-2.374831-2.374831 0-7.249483-2.499822-9.624313-2.499821h-11.999144c-4.124706 0.624955-8.12442 1.374902-11.999144 2.499821-4.874652 2.374831-7.124492 4.874652-11.999144 7.249483-6.374545 6.749518-10.499251 15.248912-11.999144 24.373261-0.999929 8.374402 0.749946 16.873796 4.874652 24.373261 2.874795 5.624599 1.874866 12.499108-2.37483 16.998787l-7.249483 7.249483c-3.624741 2.999786-7.749447 5.374617-11.999144 7.249483-4.874652 2.374831-9.624313 2.374831-14.498965 4.874652-3.999715 0.624955-8.12442 1.374902-11.999144 2.37483-2.624813 0.374973-5.374617-0.499964-7.249483-2.37483-2.374831-1.749875-4.124706-4.374688-4.874652-7.249483-1.874866-8.874367-6.999501-16.748805-14.498966-21.873439-7.124492-6.749518-16.748805-10.249269-26.498109-9.749305-9.749304-0.124991-19.123636 3.374759-26.498109 9.749305-6.374545 6.749518-11.999144 13.999001-16.873796 21.873439-1.749875 2.999786-4.249697 5.499608-7.249483 7.249483 0 2.374831-2.374831 2.374831-7.249483 2.37483-4.124706 0.374973-8.374402-0.499964-11.999144-2.37483-4.874652-2.499822-9.624313-2.499822-14.498965-4.874652-4.374688-1.874866-8.374402-4.374688-11.999144-7.249483-3.624741-1.874866-6.87451-4.249697-9.499322-7.249483-1.874866-1.999857-2.749804-4.62467-2.374831-7.249483-0.124991-4.249697 0.624955-8.374402 2.374831-12.124135 3.124777-6.87451 3.999715-14.498965 2.37483-21.873439-0.624955-8.12442-3.999715-15.873867-9.624313-21.873439-3.624741-4.249697-8.874367-6.87451-14.498966-7.249483-5.374617-2.124848-11.124206-2.999786-16.873796-2.374831-4.874652 0-11.999144 2.374831-16.873796 2.374831h-11.999144c-3.374759-2.249839-6.624527-4.62467-9.624313-7.249483l-7.249483-14.623956c-2.624813-4.499679-4.374688-9.374331-4.874652-14.623957-1.249911-3.999715-1.249911-8.249411 0-12.124135-0.749946-5.249625 2.249839-10.37426 7.249483-12.124135 10.37426-2.749804 19.748591-8.749376 26.498109-16.998787 6.249554-6.624527 9.624313-15.248912 9.624314-24.373261 0.999929-9.24934-2.624813-18.248698-9.624314-24.373261-5.249625-7.874438-12.874081-13.87401-21.623457-16.998787l-7.249483-7.249483c-1.874866-2.874795-2.749804-6.249554-2.37483-9.749304-0.124991-4.249697 0.624955-8.374402 2.37483-12.124135 0.124991-4.499679 1.749875-8.874367 4.874653-12.124135 2.374831-4.874652 4.874652-7.249483 7.249482-12.124135 0.749946-2.874795 2.374831-5.499608 4.874653-7.249483 4.249697-3.249768 10.124278-3.249768 14.498965 0 7.624456 3.249768 15.998858 3.999715 24.123279 2.374831 9.124349-1.499893 17.498751-5.74959 24.123279-12.124135 2.999786-3.749732 5.374617-7.874438 7.249482-12.124135 1.874866-4.62467 2.624813-9.624313 2.24984-14.623957v-19.498608c0.249982-1.874866-0.624955-3.874724-2.24984-4.874653V654.953269c2.624813-5.249625 5.74959-10.124278 9.499323-14.623957l14.498965-7.249482c4.874652-2.374831 9.624313-2.374831 14.498966-4.874653h11.999143c2.624813-0.374973 5.374617 0.624955 7.249483 2.374831 2.374831 2.374831 2.374831 4.874652 4.874652 7.249483 2.499822 8.624385 7.499465 16.248841 14.498966 21.873439 6.87451 5.624599 15.248912 9.124349 24.123279 9.749305 9.374331 0.249982 18.49868-2.374831 26.498109-7.249483 7.499465-5.624599 13.249055-13.249055 16.873796-21.87344 0.749946-2.874795 2.374831-5.499608 4.874652-7.249482 0.874938-3.124777 3.999715-5.249625 7.249483-4.874653 4.124706-0.374973 8.374402 0.499964 11.999144 2.374831 5.124634 0.499964 10.124278 2.124848 14.498965 4.874652 4.374688 1.874866 8.374402 4.374688 11.999144 7.249483 2.999786 2.749804 5.374617 6.124563 7.249483 9.749304 1.874866 1.999857 2.749804 4.62467 2.374831 7.249483 0 2.499822 0 4.874652-2.374831 4.874652-3.124777 7.749447-3.999715 16.12385-2.374831 24.373261 1.499893 9.124349 5.74959 17.623743 11.999144 24.373261 6.624527 6.374545 14.99893 10.624242 23.998288 12.124135 9.124349 0.999929 18.373689-0.749946 26.498109-4.874652 1.874866-1.874866 4.62467-2.749804 7.249483-2.374831 2.874795 0.749946 5.499608 2.499822 7.249483 4.874653 4.62467 5.249625 8.624385 10.999215 11.999144 16.998787 2.374831 7.249483 4.874652 17.123778 7.249483 24.373261 0.374973 4.249697-0.499964 8.374402-2.374831 12.124135-1.749875 2.374831-4.374688 4.124706-7.249483 4.874652-9.499322 1.874866-17.623743 8.249411-21.623457 16.998787-6.624527 7.249483-10.124278 16.873796-9.624313 26.748092-0.249982 8.624385 2.374831 17.123778 7.249482 24.37326 3.999715 6.999501 10.749233 12.124135 18.623672 14.748948z m-96.243133-77.869444c-4.999643-10.624242-11.49918-20.498537-19.248627-29.247913-8.249411-8.374402-17.998716-14.99893-28.87294-19.498609-10.499251-4.999643-22.123421-7.499465-33.747592-7.249483-12.374117 0.124991-24.623243 2.499822-36.122423 7.249483-10.124278 5.624599-19.873582 12.124135-28.87294 19.498609-7.249483 9.124349-13.749019 18.873653-19.248626 29.247913-2.749804 11.999144-4.374688 24.24827-4.874652 36.497396 0.124991 12.499108 2.499822 24.873225 7.249482 36.497396 4.374688 10.874224 10.999215 20.873511 19.248627 29.247913 8.249411 8.374402 17.998716 14.99893 28.87294 19.498609 10.999215 2.999786 22.373404 4.62467 33.747592 4.874652 12.374117-0.124991 24.623243-2.499822 36.122423-7.249483 10.874224-4.499679 20.74852-11.124206 28.87294-19.498608 8.374402-8.374402 14.873939-18.248698 19.248626-29.247914 2.999786-11.124206 4.62467-22.498395 4.874652-34.122565 0-12.499108-2.499822-24.873225-7.249482-36.497396z m-341.225654 72.74481c0 58.995791 18.373689 116.491688 52.496255 164.613255-193.486195 0.124991-407.095954 0.374973-460.092173 0-93.61832-0.749946-96.618106-46.996647-96.618106-90.368553 0-209.11008 142.364842-396.346721 333.226224-450.467859-83.994007-44.996789-125.991011-128.740814-125.99101-225.858885C228.69514 114.741813 344.436882 0 486.801724 0s258.106584 114.741813 259.356495 257.106655c0 96.99308-46.121709 180.862095-130.115716 225.858885 62.620532 18.123707 120.616394 49.62146 169.86288 92.243419-147.739459 12.124135-261.356352 135.740315-261.231361 283.979738z m0 0" fill="#BFCBD9" p-id="11873"></path></svg>