<?xml version="1.0" standalone="no"?><!DOCTYPE svg PUBLIC "-//W3C//DTD SVG 1.1//EN" "http://www.w3.org/Graphics/SVG/1.1/DTD/svg11.dtd"><svg t="1553853205760" class="icon" style="" viewBox="0 0 1024 1024" version="1.1" xmlns="http://www.w3.org/2000/svg" p-id="3739" xmlns:xlink="http://www.w3.org/1999/xlink" width="30" height="30"><defs><style type="text/css"></style></defs><path d="M34.816 470.528c0 259.584 210.432 470.016 470.016 470.016s470.016-210.432 470.016-470.016c0.512-260.096-209.92-470.528-469.504-470.528S34.816 210.432 34.816 470.528c0-0.512 0-0.512 0 0z" fill="#ffffff" p-id="3740" data-spm-anchor-id="a313x.7781069.0.i10" class=""></path><path d="M510.464 1005.056c-271.872 0-493.056-221.184-493.056-493.056S238.08 18.944 510.464 18.944 1003.52 240.128 1003.52 512s-221.184 493.056-493.056 493.056z m0-920.576C274.432 84.48 82.944 276.48 82.944 512s191.488 427.52 427.52 427.52 427.52-192 427.52-427.52-192-427.52-427.52-427.52z" fill="#D9D9D9" p-id="3741" data-spm-anchor-id="a313x.7781069.0.i11" class="selected"></path></svg>