<?xml version="1.0" standalone="no"?><!DOCTYPE svg PUBLIC "-//W3C//DTD SVG 1.1//EN" "http://www.w3.org/Graphics/SVG/1.1/DTD/svg11.dtd"><svg t="1553937673604" class="icon" style="" viewBox="0 0 1070 1024" version="1.1" xmlns="http://www.w3.org/2000/svg" p-id="2117" xmlns:xlink="http://www.w3.org/1999/xlink" width="31.34765625" height="30"><defs><style type="text/css"></style></defs><path d="M504.953424 816.481836z" fill="#929292" p-id="2118"></path><path d="M1066.865506 386.389557a64.18663 64.18663 0 0 0-52.172567-43.981795L723.299594 300.002725 593.028643 36.028234a64.633145 64.633145 0 0 0-115.912681 0L346.775243 300.002725 55.381898 342.407762a64.633145 64.633145 0 0 0-35.81893 110.233559l210.853079 205.522797-49.772546 290.235195a64.633145 64.633145 0 0 0 93.768294 68.135503l260.625624-137.024501 260.625623 137.024501a64.633145 64.633145 0 0 0 93.768294-68.135503l-49.772545-290.235195 210.839124-205.522797a64.18663 64.18663 0 0 0 16.367591-66.251764zM789.021121 610.093914a64.619192 64.619192 0 0 0-18.586215 57.209822l48.474859 282.602568L565.121413 816.481836a64.619192 64.619192 0 0 0-60.154035 0L251.165072 949.906304l48.474859-282.602568a64.619192 64.619192 0 0 0-18.586215-57.209822L75.726269 409.957213l283.746764-41.232933a64.619192 64.619192 0 0 0 48.656256-35.358461l126.90813-257.123266 126.894176 257.123266a64.619192 64.619192 0 0 0 48.656256 35.358461l283.760717 41.232933z" fill="#929292" p-id="2119"></path></svg>