<svg t="1553331052955" class="icon" viewBox="0 0 1025 1024" version="1.1" xmlns="http://www.w3.org/2000/svg" p-id="22111" height="17" width="17"><path d="M511.997444 0c-282.768888 0-511.997444 229.229578-511.997444 511.997444s229.229578 511.997444 511.997444 511.997445 511.997444-229.229578 511.997445-511.997445S794.766333 0 511.997444 0z m1.365752 971.354153c-253.049475 0-458.186211-205.136736-458.186211-458.18621S260.313721 54.981732 513.363196 54.981732s458.186211 205.136736 458.186211 458.186211-205.137758 458.186211-458.186211 458.18621z" fill="#515151" p-id="22112"></path><path d="M656.561657 340.725424c-29.518026-24.832966-71.247059-37.251493-125.18812-37.251493H391.530163v472.659499h61.066279V599.038564h65.64809c56.587717 0 101.165814-14.450799 133.735314-43.357508 32.567455-28.901598 48.85425-65.441591 48.85425-109.615892 0-45.389779-14.759524-80.502685-44.272439-105.33974zM604.654911 520.56815c-21.174264 16.898111-51.198313 25.342056-90.074192 25.342056h-61.984277V356.603311h68.091314c38.875879 0 67.884815 8.091261 87.019651 24.273784 19.13177 16.182523 28.702255 38.730717 28.702255 67.632315 0 31.143434-10.587643 55.164718-31.754751 72.05874z" fill="#515151" p-id="22113"></path></svg>