<svg t="1553330937510" class="icon" viewBox="0 0 1024 1024" version="1.1" xmlns="http://www.w3.org/2000/svg" p-id="19976" data-spm-anchor-id="a313x.7781069.0.i19" height="17" width="17"><path d="M512 524.3c-71.4 0-137.6 36.3-177.2 97-8 12.3-5 28.7 6.8 37.4 4.3 3 9.3 4.7 14.6 4.7 8.7 0 16.8-4.5 21.5-11.8 29.5-45.9 79.7-73.3 134.2-73.3 53.5 0 103.2 26.8 133.1 71.6 3.8 5.8 9.8 9.9 16.6 11.2 6.8 1.3 14-0.3 19.6-4.5 11.7-8.8 14.5-25.3 6.4-37.4-39.5-59.4-105.2-94.9-175.6-94.9zM513.4 689.6h-0.2c-27 1.2-48.2 23.3-48.2 50.4 0 27.1 21.2 49.2 48.2 50.4h0.2c27-1.2 48.2-23.3 48.2-50.4 0.1-27.1-21.1-49.2-48.2-50.4z" fill="#2c2c2c" p-id="19977" data-spm-anchor-id="a313x.7781069.0.i20" class=""></path><path d="M512 388.8c-106.4 0-205.4 48.8-271.6 133.8-8.9 11.6-7.3 28.2 3.7 37.8 5.3 4.5 12.2 6.7 19.1 6 6.9-0.7 13.3-4.3 17.4-9.8C337 484.2 421.3 442.7 512 442.7c90.7 0 175.1 41.5 231.4 113.7 4.2 5.6 10.5 9.2 17.4 9.9 0.9 0.1 1.8 0.1 2.7 0.1 6 0 11.9-2.2 16.5-6.1 11-9.6 12.7-26.2 3.7-37.8-66.2-85-165.2-133.7-271.7-133.7z" fill="#2c2c2c" p-id="19978"></path><path d="M878.9 426.3l-0.6-0.9C786.9 316 653.4 253.2 512 253.2c-141.3 0-274.8 62.8-366.2 172.2-9.3 11.3-8.3 27.9 2.4 37.9 5.1 4.7 12 7.1 18.9 6.7 6.9-0.5 13.4-3.9 17.8-9.2 81.6-97.7 200.8-153.7 327.1-153.7 126.3 0 245.6 56 327.1 153.7 4.4 5.4 10.8 8.8 17.8 9.2 0.6 0 1.2 0.1 1.7 0.1 6.3 0 12.5-2.4 17.1-6.7 10.5-9.8 11.8-25.9 3.2-37.1z" fill="#2c2c2c" p-id="19979"></path></svg>