<svg t="1553331138237" class="icon" viewBox="0 0 1024 1024" version="1.1" xmlns="http://www.w3.org/2000/svg" p-id="25178" height="17" width="17"><path d="M791.1 855.1h-559c-33.4 0-60.5-27.1-60.5-60.5V388.1c0-33.4 27.1-60.5 60.5-60.5h559c33.4 0 60.5 27.1 60.5 60.5v406.5c0 33.3-27.2 60.5-60.5 60.5z m-559-487.5c-11.3 0-20.5 9.2-20.5 20.5v406.5c0 11.3 9.2 20.5 20.5 20.5h559c11.3 0 20.5-9.2 20.5-20.5V388.1c0-11.3-9.2-20.5-20.5-20.5h-559z" fill="#515151" p-id="25179"></path><path d="M700.6 363.8h-376V186.5c0-49.1 42.8-89 95.5-89h185c52.7 0 95.5 39.9 95.5 89v177.3z m-336-40h296V186.5c0-27-24.9-49-55.5-49h-185c-30.6 0-55.5 22-55.5 49v137.3zM414.6 732.1c-11 0-20-9-20-20v-258c0-11 9-20 20-20s20 9 20 20v258c0 11-9 20-20 20zM609.6 732.1c-11 0-20-9-20-20v-258c0-11 9-20 20-20s20 9 20 20v258c0 11-9 20-20 20zM342.1 837.1h40v61.5h-40zM643.6 837.1h40v61.5h-40z" fill="#515151" p-id="25180"></path></svg>