<?xml version="1.0" standalone="no"?><!DOCTYPE svg PUBLIC "-//W3C//DTD SVG 1.1//EN" "http://www.w3.org/Graphics/SVG/1.1/DTD/svg11.dtd"><svg t="1554292129799" class="icon" style="" viewBox="0 0 1024 1024" version="1.1" xmlns="http://www.w3.org/2000/svg" p-id="38785" xmlns:xlink="http://www.w3.org/1999/xlink" width="30" height="30"><defs><style type="text/css"></style></defs><path d="M194.097249 970.110141A82.872658 82.872658 0 0 1 113.272159 889.285052v-107.766786a108.30562 108.30562 0 0 0 70.048411 21.553357H382.689124a149.203115 149.203115 0 0 1-5.388339-48.495054H183.32057A81.956641 81.956641 0 0 1 113.272159 700.693176V134.91755A82.872658 82.872658 0 0 1 194.097249 54.092461h431.067143A82.872658 82.872658 0 0 1 705.989482 134.91755v269.416965h5.388339a149.203115 149.203115 0 0 1 48.495054 5.388339h5.388339V134.91755a91.601768 91.601768 0 0 0-5.388339-37.718375A149.095348 149.095348 0 0 0 662.882768 5.597407a105.180383 105.180383 0 0 0-37.718376-5.388339h-431.067143a91.601768 91.601768 0 0 0-37.718375 5.388339A130.936645 130.936645 0 0 0 64.777106 97.199175a91.601768 91.601768 0 0 0-5.38834 37.718375v754.367502A133.415281 133.415281 0 0 0 194.097249 1023.993534h371.795411a213.162703 213.162703 0 0 1-80.825089-53.883393z" fill="#4D4D4D" p-id="38786"></path><path d="M328.805731 878.508373a25.432961 25.432961 0 0 0 26.941697 26.941696h70.048411a168.547253 168.547253 0 0 1-26.941697-53.883393h-43.106714a25.432961 25.432961 0 0 0-26.941697 26.941697z" fill="#4D4D4D" p-id="38787"></path><path d="M753.999585 463.390714c-19.613555 0-29.366449-4.903389-44.076615-4.903389H695.212803a271.787834 271.787834 0 0 0-269.416964 269.416965v29.366449a143.006525 143.006525 0 0 0 9.806777 44.076615l14.710166 44.076616a431.067144 431.067144 0 0 0 29.366449 48.980004 223.400547 223.400547 0 0 0 58.786782 58.786782 245.223321 245.223321 0 0 0 117.573564 44.130498c14.710166 0 24.516944 4.903389 39.173226 4.903389a271.787834 271.787834 0 0 0 269.416965-269.416965 279.115976 279.115976 0 0 0-210.630183-269.416964z m-24.516944 480.047148a83.357609 83.357609 0 0 1-34.269838 4.903388 107.766786 107.766786 0 0 1-39.173226-4.903388 236.494212 236.494212 0 0 1-171.456957-146.940013 143.006525 143.006525 0 0 1-9.806777-44.076616c0-9.806778-4.903389-19.613555-4.903389-29.366449a219.520943 219.520943 0 0 1 220.436961-220.43696h14.710166c14.710166 0 29.366449 4.903389 44.076615 4.903388h4.903389a220.436961 220.436961 0 0 1 161.650179 210.630183 227.387918 227.387918 0 0 1-186.167123 225.286467z" fill="#4D4D4D" p-id="38788"></path><path d="M866.615876 659.256847a23.65481 23.65481 0 0 0-34.269838 0l-78.400336 78.400337-48.980005 48.980004-53.883392 53.883393-44.076616-44.076616-44.076615-44.076615-14.710167-14.710166a23.65481 23.65481 0 0 0-34.269838 0 29.474216 29.474216 0 0 1-4.903388 19.344138 29.474216 29.474216 0 0 0 4.903388 19.613555l19.613555 19.613555 93.05662 93.05662c4.903389 4.903389 9.806778 4.903389 19.613555 4.903388s14.710166 0 19.613555-4.903388l39.173227-39.173227 48.980004-48.980004 112.670175-112.670175c9.752894-4.687855 9.752894-19.398021-0.053884-29.204799z" fill="#4D4D4D" p-id="38789"></path></svg>