<?xml version="1.0" standalone="no"?><!DOCTYPE svg PUBLIC "-//W3C//DTD SVG 1.1//EN" "http://www.w3.org/Graphics/SVG/1.1/DTD/svg11.dtd"><svg t="1553828005379" class="icon" style="" viewBox="0 0 1024 1024" version="1.1" xmlns="http://www.w3.org/2000/svg" p-id="34047" xmlns:xlink="http://www.w3.org/1999/xlink" width="30" height="30"><defs><style type="text/css"></style></defs><path d="M940.38016 532.48h-839.68c-33.87392 0-61.44-27.56608-61.44-61.44v-172.38016c0-33.87392 27.56608-61.44 61.44-61.44h839.68c33.87392 0 61.44 27.56608 61.44 61.44V471.04c0 33.87392-27.56608 61.44-61.44 61.44z m-839.68-254.30016c-11.28448 0-20.48 9.19552-20.48 20.48V471.04c0 11.28448 9.19552 20.48 20.48 20.48h839.68c11.30496 0 20.48-9.19552 20.48-20.48v-172.38016c0-11.28448-9.17504-20.48-20.48-20.48h-839.68z" fill="#EB6CBB" p-id="34048"></path><path d="M619.58144 267.93984h-51.9168a65.4336 65.4336 0 0 1-47.28832-20.33664 65.59744 65.59744 0 0 1-17.03936-34.63168l-22.48704 20.54144a64.86016 64.86016 0 0 1-90.46016-2.56l-87.2448-89.21088a65.18784 65.18784 0 0 1 5.87776-96.39936l18.10432-14.47936a65.18784 65.18784 0 0 1 82.82112 1.20832l111.86176 94.96576c2.58048 2.17088 4.95616 4.56704 7.14752 7.08608l114.4832-104.50944a65.51552 65.51552 0 0 1 91.01312 3.13344l15.23712 15.9744a64.83968 64.83968 0 0 1 4.7104 84.39808l-83.02592 109.09696a65.29024 65.29024 0 0 1-51.79392 25.72288zM544.768 175.18592c0.04096 1.69984 0.02048 3.3792-0.08192 5.07904L543.5392 201.5232a23.9616 23.9616 0 0 0 6.57408 17.92c4.62848 4.87424 10.83392 7.55712 17.53088 7.55712h51.9168c7.49568 0 14.68416-3.56352 19.21024-9.5232l83.02592-109.09696a24.08448 24.08448 0 0 0-1.76128-31.31392l-15.23712-15.9744a24.04352 24.04352 0 0 0-33.77152-1.16736L544.768 175.18592z m-176.98816-117.59616a23.9616 23.9616 0 0 0-15.07328 5.28384l-18.10432 14.47936c-5.38624 4.32128-8.6016 10.50624-9.0112 17.408s2.00704 13.4144 6.84032 18.35008l87.2448 89.21088a24.08448 24.08448 0 0 0 33.56672 0.96256L498.66752 161.792a23.7568 23.7568 0 0 0-3.3792-3.50208l-111.86176-94.96576a24.12544 24.12544 0 0 0-15.64672-5.7344zM817.50016 979.61984H237.21984A104.20224 104.20224 0 0 1 133.12 875.52V491.52H921.6v384a104.20224 104.20224 0 0 1-104.09984 104.09984zM174.08 532.48v343.04c0 34.816 28.32384 63.13984 63.13984 63.13984h580.25984c34.816 0 63.13984-28.32384 63.13984-63.13984V532.48H174.08z" fill="#EB6CBB" p-id="34049"></path><path d="M491.52 257.69984h40.96v701.44h-40.96zM631.66464 266.19904a20.50048 20.50048 0 0 1-7.7824-39.424l201.19552-82.71872a20.48 20.48 0 0 1 15.5648 37.86752l-201.19552 82.71872a20.45952 20.45952 0 0 1-7.7824 1.55648zM415.55968 267.93984a20.43904 20.43904 0 0 1-8.97024-2.06848L86.58944 109.71136a20.43904 20.43904 0 0 1-9.4208-27.38176 20.43904 20.43904 0 0 1 27.38176-9.4208l320 156.16a20.45952 20.45952 0 0 1-8.99072 38.87104z" fill="#EB6CBB" p-id="34050"></path></svg>