<?xml version="1.0" standalone="no"?><!DOCTYPE svg PUBLIC "-//W3C//DTD SVG 1.1//EN" "http://www.w3.org/Graphics/SVG/1.1/DTD/svg11.dtd"><svg t="1554291814169" class="icon" style="" viewBox="0 0 1024 1024" version="1.1" xmlns="http://www.w3.org/2000/svg" p-id="36586" xmlns:xlink="http://www.w3.org/1999/xlink" width="30" height="30"><defs><style type="text/css"></style></defs><path d="M512 551.424c-82.432 0-149.504-67.072-149.504-149.504S429.568 251.904 512 251.904s149.504 67.072 149.504 149.504-67.072 150.016-149.504 150.016z m0-258.56c-59.904 0-108.544 48.64-108.544 108.544s48.64 108.544 108.544 108.544 108.544-48.64 108.544-108.544-48.64-108.544-108.544-108.544z" fill="#00CC66" p-id="36587"></path><path d="M512 937.472l-15.872-20.48c-12.288-15.36-291.328-371.2-291.328-535.04 0-169.472 137.728-307.2 307.2-307.2s307.2 137.728 307.2 307.2c0 163.328-279.04 519.68-290.816 535.04l-16.384 20.48z m0-821.248c-146.944 0-266.24 119.296-266.24 266.24 0 128.512 206.336 409.6 266.24 488.448 59.904-78.848 266.24-359.936 266.24-488.448 0-146.944-119.296-266.24-266.24-266.24z" fill="#00CC66" p-id="36588"></path></svg>