<?xml version="1.0" standalone="no"?><!DOCTYPE svg PUBLIC "-//W3C//DTD SVG 1.1//EN" "http://www.w3.org/Graphics/SVG/1.1/DTD/svg11.dtd"><svg t="1554292628857" class="icon" style="" viewBox="0 0 1024 1024" version="1.1" xmlns="http://www.w3.org/2000/svg" p-id="53338" xmlns:xlink="http://www.w3.org/1999/xlink" width="30" height="30"><defs><style type="text/css"></style></defs><path d="M523.68007225 311.6860246c0-22.77098575-13.63902509-37.48522555-34.09756274-37.48522554s-41.00544908 14.72896878-41.00544906 37.48522554c0 22.52059326 20.6205563 37.63251522 41.00544906 37.63251523s34.09756272-15.18556682 34.09756274-37.63251523zM264.31766101 274.12715422c-20.44380865 0-41.10855187 14.72896878-41.10855186 37.49995451 0 22.50586431 20.6205563 37.61778627 41.10855186 37.61778626s34.00918891-15.11192197 34.00918891-37.61778626c-0.01472898-22.77098575-13.62429613-37.49995451-34.00918891-37.49995451z" fill="#1C1C2F" p-id="53339"></path><path d="M1024.46501072 624.22001312c0-136.59645646-126.00632791-252.99949671-280.68995802-265.12143801a15.73053867 15.73053867 0 0 0 0-5.22878391c-31.07812413-145.38965083-186.57184752-255.01736545-361.78766012-255.01736545-197.98679833 0-359.09225883 138.83525971-359.09225883 309.48509199 0 91.55526994 46.48462546 174.05222405 134.56385876 239.11007917l-30.70989988 92.79250329a15.87782834 15.87782834 0 0 0 4.59543825 16.86466926 15.61270692 15.61270692 0 0 0 17.27708037 2.17988737l115.26890967-58.00267905 14.19872591 2.94579376c35.49681476 7.36448439 66.13306981 13.69794096 103.8834168 13.69794096 11.10564246 0 41.68298165-4.09465331 44.26055118-7.36448439C467.81309366 815.1074485 582.37501282 890.53449763 717.1745351 890.53449763c34.53943179 0 69.47654573-8.36605427 100.84924922-16.20186566l88.85986864 48.84126047a15.64216485 15.64216485 0 0 0 22.47640637-18.29337922l-22.6973409-75.88364715c76.07512374-60.44768787 117.8022923-132.76692459 117.80229229-204.77685295zM416.703572 676.30164672a14.8615295 14.8615295 0 0 0-4.97839145-0.54497184c-9.82422218 0.85428018-19.78100507 1.26669131-29.66414311 1.26669132-33.33165635 0-61.53763155-5.78848474-94.13283947-12.57853934L268.97201514 660.60056601a14.4785763 14.4785763 0 0 0-9.69166145 1.29614925l-83.30704742 41.93337413 21.65158411-65.39662138a15.24448269 15.24448269 0 0 0-5.67065297-17.24762244c-83.6900006-58.66548265-126.10943069-130.13043917-126.1094307-212.37700083 0-147.8493886 141.83996933-268.18506354 316.20150176-268.18506355 154.13865828 0 290.60255401 94.26540019 318.7643423 219.72675625-161.60624545 2.13570048-292.38475924 116.35885337-292.38475922 256.71119685a224.86716635 224.86716635 0 0 0 8.27768045 59.23991243z m454.5065186 125.53500092a15.02354815 15.02354815 0 0 0-5.28769981 16.20186566l14.08089417 47.13270008-57.78174454-31.78511463a14.72896878 14.72896878 0 0 0-7.14354985-1.85585006 14.09562311 14.09562311 0 0 0-3.6380553 0.47132701c-30.93083443 7.86526932-63.03998638 15.9956601-94.26540017 15.99566009-145.00669762 0-262.95627962-100.1569877-262.95627961-223.36481153s117.94958199-223.32062464 262.95627961-223.32062463c142.2376515 0 262.42603674 102.26323023 262.42603674 223.32062463 0 61.40507083-38.48679541 124.34195443-108.39048124 177.20422338z" fill="#1C1C2F" p-id="53340"></path><path d="M607.17859625 524.51962347c-16.71737957 0-33.42003017 18.89726695-33.42003016 37.63251523s16.70265059 37.48522555 33.42003016 37.48522555c25.03924691 0 41.69771061-18.61741653 41.69771062-37.48522555s-16.58481885-37.63251522-41.69771062-37.63251523zM807.27163712 524.51962347c-16.48171605 0-33.18436665 18.89726695-33.18436667 37.63251523s16.71737957 37.48522555 33.18436667 37.48522555c25.03924691 0 41.93337411-18.61741653 41.93337411-37.48522555s-16.87939822-37.63251522-41.93337411-37.63251523z" fill="#1C1C2F" p-id="53341"></path></svg>