<?xml version="1.0" standalone="no"?><!DOCTYPE svg PUBLIC "-//W3C//DTD SVG 1.1//EN" "http://www.w3.org/Graphics/SVG/1.1/DTD/svg11.dtd"><svg t="1553825969655" class="icon" style="" viewBox="0 0 1025 1024" version="1.1" xmlns="http://www.w3.org/2000/svg" p-id="4782" xmlns:xlink="http://www.w3.org/1999/xlink" width="30.029296875" height="30"><defs><style type="text/css"></style></defs><path d="M929.461114 418.74561c24.662318-7.193176 42.13146-32.369293 42.13146-57.031611V185.994982c0-36.993477-27.23131-61.655795-61.655795-61.655795H115.604616c-36.993477 0-61.655795 27.23131-61.655795 61.655795v173.150026c0 27.23131 14.900151 51.893628 39.562469 57.03161 36.993477 14.900151 59.600602 49.324636 59.600602 91.456097 0 39.562469-24.662318 76.555946-59.600602 91.456096-24.662318 7.193176-39.562469 29.800301-39.562469 57.03161v175.719017c0 36.993477 27.23131 61.655795 61.655795 61.655795h791.763171c20.038133 0 34.424486-7.193176 47.269443-20.038133 9.762168-12.331159 14.900151-27.23131 12.331159-44.700452v-103.787255c0-14.900151-12.331159-24.662318-24.662318-24.662318-14.900151 0-24.662318 12.331159-24.662318 24.662318v116.632213s-2.568991 2.568991-7.193176 2.568991H115.604616c-5.137983 0-12.331159-2.568991-12.331159-12.331159v-175.719017c0-5.137983 2.568991-9.762168 2.568992-9.762167h2.055193c57.031611-22.093327 94.025088-79.124937 94.025088-138.725539 0-64.224787-36.993477-116.118414-94.025088-141.294531h-2.568992s-2.568991-2.568991-2.568991-9.762168V183.425991c0-9.762168 5.137983-12.331159 12.331159-12.331159H909.42298c5.137983 0 12.331159 2.568991 12.331159 12.331159v175.719017c0 2.568991-2.568991 7.193176-7.193176 9.762167h-2.568991c-59.600602 22.093327-94.025088 73.986954-94.025088 136.156548 0 61.655795 34.424486 116.118414 88.887105 138.725539 2.568991 2.568991 7.193176 2.568991 9.762168 2.568992 14.900151 0 24.662318-12.331159 24.662318-24.662318 0-9.762168-7.193176-20.038133-14.900151-22.093327-34.424486-14.900151-59.600602-51.893628-59.600602-91.456096 3.596588-40.076267 25.689915-71.931761 62.683392-89.400903z" fill="#A249D1" p-id="4783"></path><path d="M659.71701 312.389363c-5.137983-5.137983-12.331159-7.193176-20.038134-7.193176s-14.900151 2.568991-20.038133 7.193176L513.798294 421.314601 407.442047 312.389363c-5.137983-5.137983-12.331159-7.193176-20.038133-7.193176s-14.900151 2.568991-20.038134 7.193176c-5.137983 5.137983-7.193176 12.331159-7.193176 20.038133s2.568991 14.900151 7.193176 20.038134l106.356247 108.925238H392.541897c-17.469142 0-27.23131 12.331159-27.23131 29.800301s12.331159 29.800301 27.23131 29.800301h94.025087v47.269443H395.110888c-17.469142 0-27.23131 12.331159-27.231309 27.23131 0 17.469142 12.331159 29.800301 27.231309 29.800301h91.456096V688.489714c0 17.469142 12.331159 29.800301 27.23131 29.800301 17.469142 0 27.23131-12.331159 27.23131-29.800301v-66.793778h86.831911c17.469142 0 27.23131-12.331159 27.23131-29.800301s-12.331159-27.23131-27.23131-27.23131h-86.831911v-47.269443h86.831911c17.469142 0 27.23131-12.331159 27.23131-29.800301s-12.331159-29.800301-27.23131-29.800301h-76.555946L657.148018 349.38284c5.137983-5.137983 7.193176-12.331159 7.193176-20.038134 5.651781-4.624185 0.513798-12.331159-4.624184-16.955343z" fill="#A249D1" p-id="4784"></path></svg>