<?xml version="1.0" standalone="no"?><!DOCTYPE svg PUBLIC "-//W3C//DTD SVG 1.1//EN" "http://www.w3.org/Graphics/SVG/1.1/DTD/svg11.dtd"><svg t="1553828718281" class="icon" style="" viewBox="0 0 1024 1024" version="1.1" xmlns="http://www.w3.org/2000/svg" p-id="2423" xmlns:xlink="http://www.w3.org/1999/xlink" width="30" height="30"><defs><style type="text/css"></style></defs><path d="M512.09999 257.474856c-246.975881 0-446.456401 307.070013-446.456401 554.045894 0 212.37926 129.087394 212.47925 446.456401 212.47925 322.568499 0 446.556391 0 446.556391-212.47925-0.09999-246.875891-199.58051-554.045894-446.556391-554.045894z m133.087003 383.162582v51.195H537.69749v57.794356h107.489503v51.195001H537.69749v95.790645h-51.195v-95.790645H379.012987v-51.195001h107.489503v-57.794356H379.012987v-51.195h101.190118L368.314032 485.852553h70.993067l72.792891 148.68548 72.792892-148.68548h70.993067L543.996875 640.637438h101.190118z" fill="#16AEF7" p-id="2424"></path><path d="M306.920027 0.09999c-5.299482 0-10.298994 1.699834-15.198515 5.799434-27.397324 22.997754-36.596426 73.092862-8.899131 120.188263 36.796407 62.593887 127.687531 149.085441 229.377599 149.085441s172.083195-99.290304 204.879993-128.787423c33.7967-30.397032 63.493799-87.191485 27.797285-111.189142-8.199199-5.499463-17.798262-9.799043-31.896885-9.799043-16.398399 0-38.696221 5.799434-71.692999 22.197832-5.599453 2.799727-11.598867 3.999609-17.898252 3.999609-37.796309 0-86.291573-43.395762-129.487355-43.395762-8.199199 0-16.298408 1.599844-23.997656 5.299483-25.097549 12.198809-46.495459 16.598379-64.893663 16.598379-47.895323 0-75.592618-29.997071-98.090421-29.997071z" fill="#16AEF7" p-id="2425"></path></svg>