<?xml version="1.0" standalone="no"?><!DOCTYPE svg PUBLIC "-//W3C//DTD SVG 1.1//EN" "http://www.w3.org/Graphics/SVG/1.1/DTD/svg11.dtd"><svg t="1553829801461" class="icon" style="" viewBox="0 0 1024 1024" version="1.1" xmlns="http://www.w3.org/2000/svg" p-id="70809" data-spm-anchor-id="a313x.7781069.0.i42" xmlns:xlink="http://www.w3.org/1999/xlink" width="30" height="30"><defs><style type="text/css"></style></defs><path d="M515.874471 22.106978s499.611694 48.633351 487.823306 492.242701S509.985277 1012.481575 509.985277 1012.481575z" fill="#ffffff" p-id="70810" data-spm-anchor-id="a313x.7781069.0.i37" class="selected"></path><path d="M494.907338 1023.980003c-45.313805-2.439666-84.798406-8.598824-120.733494-18.827426-94.607065-26.206417-182.435058-81.608843-247.36618-155.978675a511.730037 511.730037 0 0 1-101.986057-179.415471C9.703674 622.974828 1.364814 572.981663 0.054994 521.21874v-18.57746c1.869744-94.637061 29.445974-186.184545 79.739098-264.893785 53.412697-84.088504 132.641865-152.64913 223.099498-193.053605 58.322026-26.516375 122.893198-41.54432 191.973753-44.69389h34.385299c61.821548 2.919601 119.843615 15.177925 172.436425 36.435019 114.084403 45.20382 211.31111 133.92169 266.803523 243.436717 34.875232 67.990704 53.992618 144.980178 55.432421 222.909524v18.587459c-1.759759 77.329428-20.567188 153.459019-54.372566 220.179897a511.840022 511.840022 0 0 1-347.762454 270.563009c-32.995489 7.438983-66.830863 10.268596-92.67733 11.888375h-34.195324z m-21.667038-263.963911c-35.875095 2.639639-65.361064 6.759076-92.81731 12.998222-4.619368 1.09985-9.058761 2.149706-13.628137 3.199563l-19.23737 4.429394 8.088895 17.99754A800.470561 800.470561 0 0 0 461.791865 972.177085l28.846057 35.895093V758.756264z m60.431738 220.759818l17.647587-1.559787a473.295292 473.295292 0 0 0 61.521589-9.168747h0.129982c2.77962-0.609917 5.919191-1.289824 9.178746-2.279688l5.659226-1.709766 3.229558-4.999317A785.152655 785.152655 0 0 0 707.95821 809.029391l5.99918-16.077802-16.397758-5.099303c-8.238874-2.569649-15.187924-4.67936-22.346945-6.639092-38.194778-10.838518-78.829223-17.767571-124.153026-21.167107l-17.427617-1.299822v222.049642z m-241.566973-181.255219a610.586521 610.586521 0 0 0-84.678423 40.424473l-19.727303 11.358447 17.18765 14.927959a464.756459 464.756459 0 0 0 155.618724 89.697737l44.393931 15.117933-25.586502-39.304627a853.563302 853.563302 0 0 1-66.520905-123.563106l-6.21915-14.228055z m455.787685 25.906458a820.58781 820.58781 0 0 1-33.635401 76.989474l-23.176832 46.37366 45.453786-24.856602a468.235983 468.235983 0 0 0 65.46105-43.234089c5.719218-4.539379 11.548421-9.378718 17.317633-14.398032l32.715527-28.446111h-40.794423c-12.868241-7.309001-26.386392-14.288047-41.25436-21.317085l-15.887827-7.588963z m53.672662-275.962271c-0.109985 6.599098-0.339954 13.228191-0.689906 19.697307a842.454821 842.454821 0 0 1-29.845919 185.374656l-3.739489 13.378171 12.65827 5.719218a665.778976 665.778976 0 0 1 73.659929 39.244634l11.998359 7.408987 8.99877-10.878512a457.097506 457.097506 0 0 0 56.712246-87.278068c26.636358-52.552815 42.834144-110.104947 48.093425-170.976624l1.509794-17.647587H801.825377z m-756.646552 1.629777a464.38651 464.38651 0 0 0 104.205753 257.4648l8.99877 10.918507 11.998359-7.408987a644.691859 644.691859 0 0 1 106.71541-52.782784l14.468022-5.549241-4.889331-14.69799A835.80573 835.80573 0 0 1 247.021229 548.305036l-1.299823-14.797976H43.409066zM533.672038 715.602164l15.047943 1.079852c50.993028 3.649501 96.136856 11.208468 138.101119 23.11684 8.418849 2.409671 16.547738 4.859336 24.1367 7.279004l16.167789 5.159295 4.419396-16.387759a802.250317 802.250317 0 0 0 26.47638-168.59695c0.239967-5.62923 0.489933-11.368446 0.599918-17.097662l0.329955-16.537739H533.672038v181.97512z m-243.266741-164.077568a795.891187 795.891187 0 0 0 37.074931 174.876091l4.839339 14.468022 14.687992-3.909465c8.438846-2.259691 16.337766-4.159431 24.156697-5.809206 30.13588-6.79907 63.27135-11.33845 104.405726-14.318042l14.997949-1.089851v-181.975121h-201.972386z m560.923311-343.373054a647.831429 647.831429 0 0 1-81.198898 41.054387l-13.788115 5.819204 4.60937 14.148066a837.025563 837.025563 0 0 1 39.334622 206.221806l0.999863 15.187923H981.020877l-1.489796-17.587595c-5.169293-60.771691-22.276954-120.83348-49.493234-173.696253a464.316519 464.316519 0 0 0-57.992071-87.638018l-8.868787-10.628547z m-150.649403 65.781006c-14.308044 4.119437-28.996036 7.838928-43.574043 11.068487-30.815787 6.899057-65.231082 11.508427-108.345187 14.508016l-15.087937 0.999864v190.084012h224.499307L756.951512 473.245298a798.760794 798.760794 0 0 0-36.345031-188.7042l-4.819341-14.99795z m-391.016541 10.538559a798.57082 798.57082 0 0 0-22.866873 189.904037v16.217783h203.852129v-190.573945l-14.997949-1.109848c-49.083289-3.619505-92.907298-11.058488-133.981682-22.766888q-5.259281-1.439803-11.528424-3.339543l-16.377761-4.999317z m-153.858964-77.179448a469.655789 469.655789 0 0 0-39.564591 53.492687c-40.324487 63.081376-64.991114 136.48134-71.440233 212.220985l-1.489796 17.587596h200.442596v-16.217783a840.435097 840.435097 0 0 1 25.996445-207.971566l3.43953-13.448162-12.758256-5.469252a652.640772 652.640772 0 0 1-83.828539-43.454059l-11.798387-7.23901z m377.878337 50.223134l17.357627-1.229832c36.924952-2.609643 68.640616-6.999043 96.98674-13.318179 11.418439-2.469662 23.196829-5.40926 34.915226-8.708809l17.887555-4.999317-7.408987-16.997676a795.481243 795.481243 0 0 0-89.697737-155.57873l-3.859472-5.219286-6.399126-1.109848c-15.057941-2.619642-28.856055-4.449392-42.184232-5.599235l-17.607593-1.519792v214.280704z m-180.335345-22.866874c36.71498 10.448571 75.899623 17.247642 119.783623 20.787158l17.517605 1.409807V43.054114L472.990334 44.633898a506.280782 506.280782 0 0 0-60.051789 9.13875l-6.819068 1.459801-3.629504 5.999179a791.531783 791.531783 0 0 0-70.780323 149.379577l-5.62923 15.997813 16.997676 5.069307c3.359541 1.019861 6.779073 2.039721 10.268596 2.969594zM689.960671 110.194934a814.418654 814.418654 0 0 1 44.843869 89.587752l6.369129 14.91796 14.907962-6.379127a606.817037 606.817037 0 0 0 56.332298-27.50624l20.447204-11.378444-17.817564-15.147929a461.936845 461.936845 0 0 0-104.22575-66.990841l-46.793602-21.72703z m-386.747125-17.997539a466.076279 466.076279 0 0 0-89.787724 58.512l-18.077529 14.99795 20.397212 11.608413c17.33763 9.868651 35.425157 18.997403 53.742652 27.236276l16.057805 7.189017 5.8492-16.587732A826.646982 826.646982 0 0 1 325.010566 113.754448l20.327221-42.404203z" fill="#1FACEE" p-id="70811" data-spm-anchor-id="a313x.7781069.0.i38" class=""></path></svg>