<?xml version="1.0" standalone="no"?><!DOCTYPE svg PUBLIC "-//W3C//DTD SVG 1.1//EN" "http://www.w3.org/Graphics/SVG/1.1/DTD/svg11.dtd"><svg t="1553829913054" class="icon" style="" viewBox="0 0 1024 1024" version="1.1" xmlns="http://www.w3.org/2000/svg" p-id="73999" data-spm-anchor-id="a313x.7781069.0.i46" xmlns:xlink="http://www.w3.org/1999/xlink" width="30" height="30"><defs><style type="text/css"></style></defs><path d="M433.066667 462.933333h-234.666667c-55.466667-4.266667-100.266667-49.066667-100.266667-106.666666s44.8-104.533333 100.266667-106.666667h21.333333V234.666667v-6.4c4.266667-57.6 51.2-100.266667 106.666667-100.266667 57.6 0 104.533333 44.8 106.666667 100.266667v234.666666z m-228.266667-170.666666h-4.266667c-34.133333 2.133333-59.733333 29.866667-59.733333 64s25.6 61.866667 59.733333 64H390.4v-189.866667c-2.133333-34.133333-29.866667-59.733333-64-59.733333s-61.866667 25.6-64 59.733333v4.266667c0 14.933333 6.4 32 17.066667 42.666666l-29.866667 29.866667c-14.933333-8.533333-29.866667-14.933333-44.8-14.933333z" fill="#49DE2A" p-id="74000" data-spm-anchor-id="a313x.7781069.0.i47" class="selected"></path><path d="M258.133333 290.133333m-23.466666 0a23.466667 23.466667 0 1 0 46.933333 0 23.466667 23.466667 0 1 0-46.933333 0Z" fill="#49DE2A" p-id="74001" data-spm-anchor-id="a313x.7781069.0.i54" class="selected"></path><path d="M324.266667 900.266667c-57.6 0-104.533333-44.8-106.666667-100.266667v-6.4-14.933333c-6.4 0-14.933333 2.133333-21.333333 0-55.466667-4.266667-100.266667-49.066667-100.266667-106.666667s44.8-104.533333 100.266667-106.666667h234.666666v234.666667c-2.133333 57.6-49.066667 100.266667-106.666666 100.266667z m-76.8-179.2l29.866666 29.866666c-10.666667 12.8-17.066667 27.733333-17.066666 42.666667v4.266667c2.133333 34.133333 29.866667 59.733333 64 59.733333s61.866667-25.6 64-59.733333V608H200.533333c-34.133333 2.133333-59.733333 29.866667-59.733333 64s25.6 61.866667 59.733333 64h4.266667c14.933333 2.133333 29.866667-4.266667 42.666667-14.933333z" fill="#49DE2A" p-id="74002" data-spm-anchor-id="a313x.7781069.0.i48" class="selected"></path><path d="M258.133333 740.266667m-23.466666 0a23.466667 23.466667 0 1 0 46.933333 0 23.466667 23.466667 0 1 0-46.933333 0Z" fill="#49DE2A" p-id="74003" data-spm-anchor-id="a313x.7781069.0.i53" class="selected"></path><path d="M699.733333 900.266667c-57.6 0-104.533333-44.8-106.666666-100.266667V567.466667h234.666666c55.466667 4.266667 100.266667 49.066667 100.266667 106.666666s-44.8 104.533333-100.266667 106.666667h-21.333333v21.333333c-4.266667 55.466667-51.2 98.133333-106.666667 98.133334z m-66.133333-290.133334v189.866667c2.133333 34.133333 29.866667 59.733333 64 59.733333s61.866667-25.6 64-59.733333v-4.266667c0-14.933333-6.4-32-17.066667-42.666666l29.866667-29.866667c12.8 10.666667 29.866667 17.066667 46.933333 17.066667 34.133333-2.133333 59.733333-29.866667 59.733334-64s-25.6-61.866667-59.733334-64H633.6z" fill="#49DE2A" p-id="74004" data-spm-anchor-id="a313x.7781069.0.i45" class="selected"></path><path d="M765.866667 740.266667m-23.466667 0a23.466667 23.466667 0 1 0 46.933333 0 23.466667 23.466667 0 1 0-46.933333 0Z" fill="#49DE2A" p-id="74005" data-spm-anchor-id="a313x.7781069.0.i52" class="selected"></path><path d="M814.933333 456.533333H586.666667V230.4v-6.4c4.266667-55.466667 49.066667-100.266667 106.666666-100.266667s104.533333 44.8 106.666667 100.266667v21.333333c6.4 0 14.933333-2.133333 21.333333 0 55.466667 4.266667 100.266667 49.066667 100.266667 106.666667s-44.8 104.533333-100.266667 106.666667c-2.133333-2.133333-4.266667-2.133333-6.4-2.133334z m-185.6-42.666666H819.2c34.133333-2.133333 59.733333-29.866667 59.733333-64s-25.6-61.866667-59.733333-64c-19.2-2.133333-34.133333 4.266667-46.933333 17.066666l-29.866667-29.866666c10.666667-12.8 17.066667-27.733333 17.066667-42.666667v-4.266667c-2.133333-34.133333-29.866667-59.733333-64-59.733333s-61.866667 25.6-64 59.733333V413.866667z" fill="#49DE2A" p-id="74006" data-spm-anchor-id="a313x.7781069.0.i49" class="selected"></path><path d="M759.466667 283.733333m-23.466667 0a23.466667 23.466667 0 1 0 46.933333 0 23.466667 23.466667 0 1 0-46.933333 0Z" fill="#49DE2A" p-id="74007" data-spm-anchor-id="a313x.7781069.0.i55" class="selected"></path></svg>