<?xml version="1.0" standalone="no"?><!DOCTYPE svg PUBLIC "-//W3C//DTD SVG 1.1//EN" "http://www.w3.org/Graphics/SVG/1.1/DTD/svg11.dtd"><svg t="1553829699882" class="icon" style="" viewBox="0 0 1024 1024" version="1.1" xmlns="http://www.w3.org/2000/svg" p-id="63775" xmlns:xlink="http://www.w3.org/1999/xlink" width="30" height="30"><defs><style type="text/css"></style></defs><path d="M441.929458 942.09399c0-0.041971 139.554601-0.041971 139.554602-0.041971 0.089939 0 0-46.564169 0-46.564169 0 0.041971-139.554601 0.041971-139.554602 0.041971-0.089939 0 0 46.564169 0 46.564169z" fill="#3D3D3D" p-id="63776"></path><path d="M846.793696 753.447948a210.657996 210.657996 0 0 1-32.727628 2.533268 23.247108 23.247108 0 0 1-16.444758-6.814342 23.257102 23.257102 0 0 1-6.814342-16.444758V360.587505a23.257102 23.257102 0 0 1 6.814342-16.44376 23.249107 23.249107 0 0 1 16.444758-6.814341 208.434515 208.434515 0 0 1 100.714153 25.770383C856.446097 197.615911 696.007772 81.484298 510.938284 81.484298c-185.346298 0-346.19934 116.455392-404.299623 282.733725a208.300607 208.300607 0 0 1 102.709788-26.88762c12.846218 0 23.2591 10.411883 23.2591 23.258101v372.134611a23.256102 23.256102 0 0 1-6.814341 16.444759 23.247108 23.247108 0 0 1-16.444759 6.814341c-80.79377 0.004997-154.374471-46.484224-189.061758-119.448346C-14.400597 563.564751-4.003705 477.15482 47.004427 414.498651a23.146177 23.146177 0 0 1 0.04397-9.465529C92.356424 190.823554 285.447428 34.968096 510.917299 34.968096c228.630709 0 423.606425 160.204485 465.53976 378.417316l0.234839 1.464a208.433516 208.433516 0 0 1 46.702075 131.8029c0 76.754531-41.330747 143.881643-102.939631 180.327729-62.848037 109.778956-168.720664 190.530754-293.033684 222.486909-3.577554 22.577566-23.08322 39.176219-45.935599 39.101271h-139.554601c-25.695435 0-46.515202-20.888721-46.515203-46.474231V895.48785a46.362307 46.362307 0 0 1 46.515203-46.473231h139.554601c25.701431 0 46.516202 20.888721 46.516202 46.473231v5.605168a428.304214 428.304214 0 0 0 218.792435-147.64507z" fill="#EA3586" p-id="63777" data-spm-anchor-id="a313x.7781069.0.i33" class="selected"></path><path d="M46.537746 546.652312c0.324778 145.649435 139.553602 162.39199 139.553602 162.39199V384.730001S46.211968 401.007874 46.537746 546.652312zM976.87877 546.652312c0.324778-145.643439-139.549605-161.922311-139.549604-161.922311v324.314301c0-0.000999 139.223827-16.742555 139.549604-162.39199z" fill="#ffffff" p-id="63778" data-spm-anchor-id="a313x.7781069.0.i32" class=""></path></svg>