<?xml version="1.0" standalone="no"?><!DOCTYPE svg PUBLIC "-//W3C//DTD SVG 1.1//EN" "http://www.w3.org/Graphics/SVG/1.1/DTD/svg11.dtd"><svg t="1553908799841" class="icon" style="" viewBox="0 0 1024 1024" version="1.1" xmlns="http://www.w3.org/2000/svg" p-id="2363" xmlns:xlink="http://www.w3.org/1999/xlink" width="30" height="30"><defs><style type="text/css"></style></defs><path d="M821.556536 576.868174a356.173913 356.173913 0 1 0-612.040348 12.020869l312.008348 344.509218 300.076521-356.530087z m-647.613218 39.090087a400.695652 400.695652 0 1 1 684.254609-13.401044l-335.426783 398.514087-348.827826-385.113043z" fill="#272635" p-id="2364"></path><path d="M511.952362 556.521739a155.826087 155.826087 0 1 1 0-311.652174 155.826087 155.826087 0 0 1 0 311.652174z m0-44.521739a111.304348 111.304348 0 1 0 0-222.608696 111.304348 111.304348 0 0 0 0 222.608696z" fill="#272635" p-id="2365"></path></svg>