<?xml version="1.0" standalone="no"?><!DOCTYPE svg PUBLIC "-//W3C//DTD SVG 1.1//EN" "http://www.w3.org/Graphics/SVG/1.1/DTD/svg11.dtd"><svg t="1558441122130" class="icon" style="" viewBox="0 0 1024 1024" version="1.1" xmlns="http://www.w3.org/2000/svg" p-id="3969" xmlns:xlink="http://www.w3.org/1999/xlink" width="64" height="64"><defs><style type="text/css"></style></defs><path d="M512 1024A512 512 0 1 1 512 0a512 512 0 0 1 0 1024zM277.902222 230.001778l-41.528889 38.343111c45.283556 35.84 79.928889 69.176889 104.448 100.067555l42.780445-41.415111a806.115556 806.115556 0 0 0-105.699556-96.995555z m359.310222 552.846222h146.033778l13.198222-55.580444c-17.009778 1.251556-41.528889 1.877333-72.988444 3.072-31.459556 0.625778-62.919111 1.251556-93.752889 1.251555-47.843556 0-89.998222-0.568889-125.269333-1.251555-36.465778-1.194667-64.170667-6.826667-82.432-16.042667-15.075556-8.021333-29.582222-20.366222-44.657778-37.660445-2.56-3.128889-5.688889-6.200889-8.192-8.647111V433.265778H228.124444v54.328889h84.935112v174.819555c-25.144889 12.344889-54.044444 43.804444-85.560889 93.866667l44.032 40.163555c32.085333-55.580444 54.784-83.399111 67.982222-83.399111 7.566222 0 15.132444 4.949333 23.324444 15.473778 18.830222 20.992 40.220444 35.214222 65.422223 42.609778 25.770667 6.144 58.538667 9.898667 98.759111 10.467555 39.651556 0.625778 76.174222 1.251556 110.136889 1.251556zM738.531556 227.555556c-80.554667 19.171556-178.688 30.264889-294.513778 32.711111v142.734222c-1.877333 111.160889-21.390222 197.632-59.164445 259.413333l54.158223 25.941334c36.465778-60.529778 56.604444-150.755556 60.416-269.937778h202.638222a458.524444 458.524444 0 0 1-55.409778 103.765333 1693.468444 1693.468444 0 0 0-103.196444-75.946667l-34.588445 41.358223c35.84 24.689778 69.859556 50.631111 101.944889 77.824a489.927111 489.927111 0 0 1-130.901333 98.247111l36.465777 46.933333a550.343111 550.343111 0 0 0 137.841778-106.894222c33.962667 31.516444 64.853333 64.284444 92.501334 98.872889l40.277333-46.990222a1084.472889 1084.472889 0 0 0-96.881778-96.312889c30.151111-43.861333 54.044444-93.297778 70.428445-148.878223v-41.415111H500.053333l-0.568889-57.457777c98.759111-3.072 188.131556-14.222222 268.686223-33.962667L738.531556 227.555556z" p-id="3970" fill="#00cc66"></path></svg>