<?xml version="1.0" standalone="no"?><!DOCTYPE svg PUBLIC "-//W3C//DTD SVG 1.1//EN" "http://www.w3.org/Graphics/SVG/1.1/DTD/svg11.dtd"><svg t="1556008597422" class="icon" style="" viewBox="0 0 1024 1024" version="1.1" xmlns="http://www.w3.org/2000/svg" p-id="2222" xmlns:xlink="http://www.w3.org/1999/xlink" width="64" height="64"><defs><style type="text/css"></style></defs><path d="M600.023 359.456c21.962-21.962 41.344-44.594 58.17-67.848l31.020 19.382c-20.696 25.859-40.078 49.136-58.169 69.784h96.932v31.020h-209.375c-7.743 19.382-16.156 36.828-25.188 52.337h259.776v32.956h-133.784c34.891 34.891 81.422 58.169 139.592 69.784-5.187 6.502-11.638 16.156-19.382 29.085-1.314 3.871-2.605 6.502-3.871 7.743-28.44-9.008-53.652-20.027-75.614-32.956-1.315 16.825-4.567 48.466-9.703 94.996-2.605 45.215-32.956 67.178-91.125 65.912-23.277 0-43.304 0-60.081 0-2.605-12.929-5.808-25.883-9.703-38.763 11.638 1.266 34.221 1.935 67.823 1.935 37.473 1.266 56.234-9.703 56.234-32.956 0-5.137 0.621-13.574 1.935-25.214 2.58-21.962 3.871-36.828 3.871-44.594h-139.567c-5.187 76.285-57.524 126.662-157.037 151.23-1.315-1.315-2.605-3.871-3.871-7.743-6.477-9.058-12.308-17.446-17.446-25.214 91.746-19.382 138.922-58.79 141.527-118.274h-65.912v-17.446c-18.116 11.638-38.763 23.277-62.040 34.891-11.638-15.511-20.051-26.479-25.214-32.956 55.563-23.277 99.514-49.733 131.824-79.487h-124.080v-32.956h153.165c11.638-15.511 21.317-32.956 29.085-52.337h-162.844v-31.020h174.482c11.638-37.473 18.712-71.074 21.317-100.804l36.828 1.935c-3.871 29.754-10.993 62.71-21.317 98.868h98.868l-27.125-21.292zM357.693 312.925l27.149-21.317c5.162 5.187 12.259 12.308 21.317 21.317 16.776 15.511 29.706 28.44 38.763 38.764l-29.085 25.214c-9.058-10.324-21.987-24.543-38.764-42.658-9.058-9.034-15.511-16.13-19.382-21.317zM642.683 559.125c-24.568-15.511-46.531-36.183-65.912-62.040h-106.61c-25.859 29.754-49.136 50.402-69.784 62.040h242.305z" fill="#00cc66" p-id="2223"></path><path d="M512 127.348c212.104 0 384.652 172.547 384.652 384.652s-172.547 384.652-384.652 384.652-384.652-172.547-384.652-384.652 172.547-384.652 384.652-384.652M512 90.125c-233 0-421.875 188.875-421.875 421.875s188.875 421.875 421.875 421.875 421.875-188.875 421.875-421.875-188.875-421.875-421.875-421.875v0z" fill="#00cc66" p-id="2224"></path></svg>