<?xml version="1.0" standalone="no"?><!DOCTYPE svg PUBLIC "-//W3C//DTD SVG 1.1//EN" "http://www.w3.org/Graphics/SVG/1.1/DTD/svg11.dtd"><svg t="1553570099417" class="icon" style="" viewBox="0 0 1582 1024" version="1.1" xmlns="http://www.w3.org/2000/svg" p-id="2282" xmlns:xlink="http://www.w3.org/1999/xlink" width="74.15625" height="48"><defs><style type="text/css"></style></defs><path d="M787.692308 792.325792c-152.904977 0-278.00905-125.104072-278.00905-278.00905s125.104072-278.00905 278.00905-278.00905 278.00905 125.104072 278.009049 278.00905-120.470588 278.00905-278.009049 278.00905z m0-463.348416c-101.936652 0-185.339367 83.402715-185.339367 185.339366s83.402715 185.339367 185.339367 185.339367 185.339367-83.402715 185.339366-185.339367c0-106.570136-83.402715-185.339367-185.339366-185.339366z" fill="#666666" p-id="2283"></path><path d="M787.692308 1024c-185.339367 0-384.579186-74.135747-556.0181-213.140271-111.20362-88.036199-231.674208-222.40724-231.674208-301.176471 0-88.036199 120.470588-217.773756 231.674208-305.809955 171.438914-129.737557 370.678733-203.873303 556.0181-203.873303 194.606335 0 393.846154 74.135747 565.285068 217.773756 60.235294 50.968326 120.470588 115.837104 162.171945 171.438914 41.701357 55.60181 60.235294 97.303167 60.235294 125.104072 0 74.135747-115.837104 213.140271-231.674208 301.176471-166.80543 134.371041-366.045249 208.506787-556.018099 208.506787z m0-926.696833c-166.80543 0-342.877828 64.868778-500.41629 185.339367-129.737557 101.936652-194.606335 203.873303-194.606335 231.674208 0 27.800905 74.135747 134.371041 194.606335 227.040724 157.538462 125.104072 333.61086 194.606335 500.41629 194.606335 166.80543 0 347.511312-69.502262 500.416289-189.972851 120.470588-92.669683 189.972851-194.606335 194.606335-227.040724-4.633484-9.266968-13.900452-32.434389-41.701357-74.135746-37.067873-50.968326-92.669683-106.570136-143.638009-152.904978-157.538462-129.737557-333.61086-194.606335-509.683258-194.606335z" fill="#666666" p-id="2284"></path></svg>