<?xml version="1.0" standalone="no"?><!DOCTYPE svg PUBLIC "-//W3C//DTD SVG 1.1//EN" "http://www.w3.org/Graphics/SVG/1.1/DTD/svg11.dtd"><svg t="1562921434801" class="icon" viewBox="0 0 1024 1024" version="1.1" xmlns="http://www.w3.org/2000/svg" p-id="14122" xmlns:xlink="http://www.w3.org/1999/xlink" width="128" height="128"><defs><style type="text/css"></style></defs><path d="M511.1 63.6c-247.6 0-448.3 200.7-448.3 448.3s200.7 448.3 448.3 448.3 448.3-200.7 448.3-448.3S758.7 63.6 511.1 63.6zM277.9 801c16.7-87.8 67.7-152.2 128.9-152.2 61.1 0 112.2 64.4 128.9 152.2H277.9z m233.9-365.2C503.3 605.4 692 801 692 801H572.3c-15.9-77.9-55.9-140.4-107.4-167.7-23.1-103.5-13.1-197.5-13.1-197.5C335.4 481.5 301.6 588 301.6 588c-26.3-159.8 120.1-213 120.1-213-97.6-22.8-150.1 91.3-150.1 91.3-18.8-175 150.1-152.2 150.1-152.2l30-91.3 60.1 60.9C649.1 188 722 314.1 722 314.1c-64.3-30.4-150.1 0-150.1 0 180.2 73.9 180.2 213 180.2 213-90.1-108.7-240.3-91.3-240.3-91.3z" fill="#00cc66" p-id="14123"></path></svg>