<?xml version="1.0" standalone="no"?><!DOCTYPE svg PUBLIC "-//W3C//DTD SVG 1.1//EN" "http://www.w3.org/Graphics/SVG/1.1/DTD/svg11.dtd"><svg t="1555901934710" class="icon" style="" viewBox="0 0 1024 1024" version="1.1" xmlns="http://www.w3.org/2000/svg" p-id="4949" xmlns:xlink="http://www.w3.org/1999/xlink" width="64" height="64"><defs><style type="text/css"></style></defs><path d="M513 64.9c-246.5 0-447 200.5-447 447s200.5 447 447 447 447-200.5 447-447-200.5-447-447-447z m0 830c-211.1 0-383-171.8-383-383s171.7-383 383-383 383 171.7 383 383c0 211.4-171.8 383-383 383z m159.9-383H513.2V288.6c0-17.7-14.2-32.1-31.9-32.1s-31.9 14.4-31.9 32.1V544c0 17.7 14.2 31.9 31.9 31.9h191.6c17.7 0 32.1-14.2 32.1-31.9-0.2-17.8-14.6-32.1-32.1-32.1z" p-id="4950" data-spm-anchor-id="a313x.7781069.0.i6" class="selected" fill="#ffffff"></path></svg>