<?xml version="1.0" standalone="no"?><!DOCTYPE svg PUBLIC "-//W3C//DTD SVG 1.1//EN" "http://www.w3.org/Graphics/SVG/1.1/DTD/svg11.dtd"><svg t="1553743221586" class="icon" style="" viewBox="0 0 1024 1024" version="1.1" xmlns="http://www.w3.org/2000/svg" p-id="10725" xmlns:xlink="http://www.w3.org/1999/xlink" width="48" height="48"><defs><style type="text/css"></style></defs><path d="M116.541 815.89C52.394 815.89 0.207 763.705 0.207 699.556V210.959c0-64.147 52.187-116.334 116.334-116.334h418.805c64.147 0 116.34 52.187 116.34 116.334v535.13c0 12.848-10.417 23.265-23.271 23.265-12.852 0-23.27-10.417-23.27-23.265v-535.13c0-38.488-31.311-69.8-69.8-69.8H116.541c-38.488 0-69.802 31.312-69.802 69.8v488.596c0 38.488 31.313 69.799 69.802 69.799 12.848 0 23.266 10.419 23.266 23.269 0 12.855-10.418 23.267-23.266 23.267z m0 0" fill="#272635" p-id="10726"></path><path d="M628.415 815.89H395.746c-12.849 0-23.266-10.412-23.266-23.267 0-12.85 10.417-23.269 23.266-23.269h232.669c12.854 0 23.271 10.419 23.271 23.269 0 12.855-10.417 23.267-23.271 23.267z m0 0M954.153 815.89H907.62c-12.849 0-23.268-10.412-23.268-23.267 0-12.85 10.419-23.269 23.268-23.269h46.533c12.828 0 23.265-10.437 23.265-23.265V583.225c0-20.656-10.868-53.271-23.265-69.791L870.396 401.75c-10.959-14.611-37.58-27.918-55.844-27.918H651.686c-12.854 0-23.271-10.418-23.271-23.266 0-12.854 10.417-23.268 23.271-23.268h162.867c33.153 0 73.163 20.001 93.067 46.528l83.756 111.682c18.57 24.755 32.577 66.766 32.577 97.717V746.09c0 38.489-31.311 69.8-69.8 69.8z m0 0" fill="#272635" p-id="10727"></path><path d="M954.153 606.49H768.02c-25.66 0-46.534-20.875-46.534-46.536v-93.056c0-25.658 20.874-46.533 46.534-46.533h116.333c12.849 0 23.268 10.418 23.268 23.266 0 12.848-10.419 23.267-23.268 23.267H768.02v93.056h186.134c12.848 0 23.265 10.418 23.265 23.271-0.001 12.845-10.418 23.265-23.266 23.265z m0 0M256.146 932.229c-64.148 0-116.339-52.193-116.339-116.34s52.191-116.334 116.339-116.334c64.146 0 116.333 52.187 116.333 116.334s-52.187 116.34-116.333 116.34z m0-186.139c-38.494 0-69.806 31.313-69.806 69.8 0 38.494 31.312 69.804 69.806 69.804 38.487 0 69.8-31.31 69.8-69.804 0.001-38.487-31.313-69.8-69.8-69.8z m0 0M768.02 932.229c-64.148 0-116.339-52.193-116.339-116.34s52.19-116.334 116.339-116.334c64.147 0 116.333 52.187 116.333 116.334s-52.186 116.34-116.333 116.34z m0-186.139c-38.487 0-69.801 31.313-69.801 69.8 0 38.494 31.313 69.804 69.801 69.804 38.486 0 69.797-31.31 69.797-69.804-0.001-38.487-31.311-69.8-69.797-69.8z m0 0M395.746 490.166H279.413c-12.853 0-23.266-10.418-23.266-23.268V280.76c0-12.848 10.413-23.266 23.266-23.266 12.849 0 23.267 10.418 23.267 23.266v162.872h93.066c12.848 0 23.266 10.417 23.266 23.267 0 12.849-10.418 23.267-23.266 23.267z m0 0" fill="#272635" p-id="10728"></path></svg>