<?xml version="1.0" standalone="no"?><!DOCTYPE svg PUBLIC "-//W3C//DTD SVG 1.1//EN" "http://www.w3.org/Graphics/SVG/1.1/DTD/svg11.dtd"><svg t="1556109404143" class="icon" style="" viewBox="0 0 1024 1024" version="1.1" xmlns="http://www.w3.org/2000/svg" p-id="1872" xmlns:xlink="http://www.w3.org/1999/xlink" width="64" height="64"><defs><style type="text/css"></style></defs><path d="M 883.2 60.8 l -89.6 0 c -12.8 0 -25.6 9.6 -25.6 25.6 s 9.6 25.6 25.6 25.6 l 89.6 0 c 25.6 0 48 22.4 48 48 l 0 713.6 c 0 25.6 -22.4 48 -48 48 l -736 0 c -25.6 0 -48 -22.4 -48 -48 l 0 -713.6 c 0 -25.6 22.4 -48 48 -48 l 99.2 0 c 12.8 0 25.6 -9.6 25.6 -25.6 s -9.6 -25.6 -25.6 -25.6 l -99.2 0 c -54.4 0 -96 41.6 -96 96 l 0 713.6 c 0 54.4 41.6 96 96 96 l 736 0 c 54.4 0 96 -41.6 96 -96 l 0 -713.6 C 979.2 102.4 934.4 60.8 883.2 60.8 Z" fill="#00cc66" p-id="1873"></path><path d="M 393.6 108.8 l 240 0 c 12.8 0 25.6 -9.6 25.6 -25.6 s -9.6 -25.6 -25.6 -25.6 l -240 0 c -12.8 0 -25.6 9.6 -25.6 25.6 S 380.8 108.8 393.6 108.8 Z" fill="#00cc66" p-id="1874"></path><path d="M 294.4 345.6 l 464 0 c 12.8 0 25.6 -9.6 25.6 -25.6 s -9.6 -25.6 -25.6 -25.6 l -464 0 c -12.8 0 -25.6 9.6 -25.6 25.6 S 278.4 345.6 294.4 345.6 Z" fill="#00cc66" p-id="1875"></path><path d="M 294.4 540.8 l 464 0 c 12.8 0 25.6 -9.6 25.6 -25.6 s -9.6 -25.6 -25.6 -25.6 l -464 0 c -12.8 0 -25.6 9.6 -25.6 25.6 S 278.4 540.8 294.4 540.8 Z" fill="#00cc66" p-id="1876"></path><path d="M 294.4 736 l 464 0 c 12.8 0 25.6 -9.6 25.6 -25.6 s -9.6 -25.6 -25.6 -25.6 l -464 0 c -12.8 0 -25.6 9.6 -25.6 25.6 S 278.4 736 294.4 736 Z" fill="#00cc66" p-id="1877"></path></svg>