<?xml version="1.0" standalone="no"?><!DOCTYPE svg PUBLIC "-//W3C//DTD SVG 1.1//EN" "http://www.w3.org/Graphics/SVG/1.1/DTD/svg11.dtd"><svg t="1558442352152" class="icon" style="" viewBox="0 0 1024 1024" version="1.1" xmlns="http://www.w3.org/2000/svg" p-id="2367" xmlns:xlink="http://www.w3.org/1999/xlink" width="64" height="64"><defs><style type="text/css"></style></defs><path d="M511.38 63.974c-247.396 0-447.952 200.555-447.952 447.952S263.984 959.88 511.38 959.88c247.398 0 447.953-200.555 447.953-447.953S758.778 63.974 511.38 63.974zM760.632 388.57L465.707 683.497c-6.656 6.655-15.382 9.984-24.107 9.984s-17.45-3.329-24.107-9.984L262.131 528.132c-13.317-13.31-13.317-34.9 0-48.21 13.314-13.318 34.9-13.318 48.214 0L441.6 611.177l270.817-270.818c13.315-13.318 34.9-13.318 48.215 0 13.314 13.31 13.314 34.9 0 48.21z" p-id="2368" fill="#00cc66"></path></svg>