<?xml version="1.0" standalone="no"?><!DOCTYPE svg PUBLIC "-//W3C//DTD SVG 1.1//EN" "http://www.w3.org/Graphics/SVG/1.1/DTD/svg11.dtd"><svg t="1561184378135" class="icon" viewBox="0 0 1024 1024" version="1.1" xmlns="http://www.w3.org/2000/svg" p-id="3002" xmlns:xlink="http://www.w3.org/1999/xlink" width="64" height="64"><defs><style type="text/css"></style></defs><path d="M512 1024C229.216 1024 0 794.752 0 512 0 229.216 229.216 0 512 0c282.752 0 512 229.248 512 512s-229.248 512-512 512z m0-960C264.576 64 64 264.576 64 512s200.576 448 448 448c247.392 0 448-200.576 448-448S759.392 64 512 64z m214.848 662.848c-12.192 12.192-32 12.192-44.16 0L512 556.192 341.312 726.848c-12.192 12.192-32 12.192-44.192 0s-12.192-32 0-44.192L467.808 512 297.152 341.344c-12.192-12.192-12.192-32 0-44.192s32-12.192 44.192 0L512 467.808l170.656-170.656c12.192-12.192 31.968-12.192 44.16 0s12.192 32 0 44.192L556.16 512l170.656 170.656c12.224 12.224 12.224 32 0.032 44.192z" p-id="3003" fill="#ffffff"></path></svg>