<?xml version="1.0" standalone="no"?><!DOCTYPE svg PUBLIC "-//W3C//DTD SVG 1.1//EN" "http://www.w3.org/Graphics/SVG/1.1/DTD/svg11.dtd"><svg t="1562921226120" class="icon" viewBox="0 0 1024 1024" version="1.1" xmlns="http://www.w3.org/2000/svg" p-id="10788" xmlns:xlink="http://www.w3.org/1999/xlink" width="128" height="128"><defs><style type="text/css"></style></defs><path d="M912.896 370.176V254.464c0-18.432-14.848-33.28-33.28-33.28H144.384c-18.432 0-33.28 14.848-33.28 33.28 1.536 85.504 1.536 91.648 1.536 115.712 0 4.096 3.072 7.68 7.168 7.68 78.336 3.584 143.872 68.096 143.872 146.944 0 78.848-67.584 143.36-145.92 146.944-4.096 0-7.168 3.584-7.168 7.68v115.712c0 18.432 14.848 33.28 33.28 33.28h735.232c18.432 0 33.28-14.848 33.28-33.28v-115.712c0-4.096-3.072-7.68-7.168-7.68-77.824-3.584-140.8-68.096-140.8-146.944 0-78.848 62.976-143.36 140.8-146.944 4.608 0 7.68-3.584 7.68-7.68z m-296.96 266.24H412.672c-8.704 0-15.36-6.656-15.36-15.36s6.656-15.36 15.36-15.36h203.264c8.192 0 15.36 6.656 15.36 15.36s-6.656 15.36-15.36 15.36z m-203.264-57.344h-39.424c-5.632 0-9.728-6.144-6.656-11.264l98.304-182.272c3.072-5.12 10.752-5.632 13.312 0l43.008 78.336c2.56 4.608 8.192 5.12 11.776 2.048l31.744-30.208c3.584-3.584 9.216-2.56 11.776 1.536l80.896 130.56c3.072 5.12-0.512 11.776-6.656 11.776l-238.08-0.512z" fill="#ffffff" p-id="10789"></path><path d="M584.704 674.304H444.416c-8.704 0-15.36-6.656-15.36-15.36s6.656-15.36 15.36-15.36h140.288c8.704 0 15.36 6.656 15.36 15.36s-7.168 15.36-15.36 15.36z" fill="#ffffff" p-id="10790"></path></svg>