<?xml version="1.0" standalone="no"?><!DOCTYPE svg PUBLIC "-//W3C//DTD SVG 1.1//EN" "http://www.w3.org/Graphics/SVG/1.1/DTD/svg11.dtd"><svg t="1555741368961" class="icon" style="" viewBox="0 0 1024 1024" version="1.1" xmlns="http://www.w3.org/2000/svg" p-id="16443" data-spm-anchor-id="a313x.7781069.0.i1" xmlns:xlink="http://www.w3.org/1999/xlink" width="64" height="64"><defs><style type="text/css"></style></defs><path d="M512 1024c-282.76841 0-512-229.23159-512-512S229.23159 0 512 0s512 229.23159 512 512-229.23159 512-512 512z m0-754.871795c-135.31241 0-242.871795 93.676308-242.871795 211.646359 0 65.923282 34.697846 128.374154 90.210462 166.537846V754.871795l107.559384-65.923282c13.876513 3.47241 31.225436 3.47241 45.101949 3.47241 135.31241 0 242.871795-93.682872 242.871795-211.646359C754.871795 362.797949 647.31241 269.128205 512 269.128205zM390.564103 512a31.094154 31.094154 0 0 1-31.225436-31.225436 31.094154 31.094154 0 0 1 31.225436-31.225436 31.094154 31.094154 0 0 1 31.225435 31.225436A31.094154 31.094154 0 0 1 390.564103 512zM512 512a31.094154 31.094154 0 0 1-31.225436-31.225436A31.094154 31.094154 0 0 1 512 449.549128a31.094154 31.094154 0 0 1 31.225436 31.225436A31.094154 31.094154 0 0 1 512 512z m121.435897 0a31.094154 31.094154 0 0 1-31.225435-31.225436 31.094154 31.094154 0 0 1 31.225435-31.225436 31.094154 31.094154 0 0 1 31.225436 31.225436A31.094154 31.094154 0 0 1 633.435897 512z" fill="#00CC66" p-id="16444" data-spm-anchor-id="a313x.7781069.0.i0" class="selected"></path></svg>