<?xml version="1.0" standalone="no"?><!DOCTYPE svg PUBLIC "-//W3C//DTD SVG 1.1//EN" "http://www.w3.org/Graphics/SVG/1.1/DTD/svg11.dtd"><svg t="1555644874800" class="icon" style="" viewBox="0 0 1024 1024" version="1.1" xmlns="http://www.w3.org/2000/svg" p-id="27072" xmlns:xlink="http://www.w3.org/1999/xlink" width="64" height="64"><defs><style type="text/css"></style></defs><path d="M 511.936 97.28 a 414.976 414.976 0 1 1 0 829.952 a 414.976 414.976 0 1 1 0 -829.952 Z m 0 778.048 a 363.136 363.136 0 1 0 -363.136 -363.072 a 363.008 363.008 0 0 0 363.136 363.072 Z m -22.7844 -480.704 a 25.152 25.152 0 0 1 22.784 -6.71999 a 25.472 25.472 0 0 1 22.784 6.71999 L 733.312 593.216 a 25.92 25.92 0 1 1 -36.672 36.608 l -184.768 -184.704 l -184.704 184.704 a 25.856 25.856 0 0 1 -36.672 0 a 25.856 25.856 0 0 1 0 -36.672 L 489.152 394.625 Z" p-id="27073" fill="#707070"></path></svg>