<?xml version="1.0" standalone="no"?><!DOCTYPE svg PUBLIC "-//W3C//DTD SVG 1.1//EN" "http://www.w3.org/Graphics/SVG/1.1/DTD/svg11.dtd"><svg t="1555645520552" class="icon" style="" viewBox="0 0 1024 1024" version="1.1" xmlns="http://www.w3.org/2000/svg" p-id="13812" xmlns:xlink="http://www.w3.org/1999/xlink" width="64" height="64"><defs><style type="text/css"></style></defs><path d="M504 96.00000001C270.4 96 80 286.4 80 520S270.4 944 504 944C737.6 942.4 928 753.6 927.99999999 520S737.6 96 504 96.00000001z m0 782.39999999C305.6 878.4 144 718.4 144 520S305.6 160 504 160 864 321.6 864 520 702.4 878.4 504 878.4z" p-id="13813" fill="#707070"></path><path d="M672 403.2L505.6 569.60000001 336 400c-12.8-12.8-32-12.8-44.8 0-12.8 12.8-12.8 32 0 44.8l192 192c6.4 6.4 14.4 9.6 22.4 9.6 8 0 16-3.2 22.4-9.6L716.8 448c12.8-12.8 12.8-33.6 0-44.8-12.8-12.8-32-12.8-44.8 0z" p-id="13814" fill="#707070"></path></svg>