<?xml version="1.0" standalone="no"?><!DOCTYPE svg PUBLIC "-//W3C//DTD SVG 1.1//EN" "http://www.w3.org/Graphics/SVG/1.1/DTD/svg11.dtd"><svg t="1554804553457" class="icon" style="" viewBox="0 0 1024 1024" version="1.1" xmlns="http://www.w3.org/2000/svg" p-id="2532" xmlns:xlink="http://www.w3.org/1999/xlink" width="64" height="64"><defs><style type="text/css"></style></defs><path d="M665.6 547.84L286.208 168.96c-19.968-19.968-19.968-52.224 0-72.192 19.968-19.968 52.224-19.968 72.192 0L737.792 476.16c19.968 19.968 19.968 52.224 0 72.192-19.968 19.456-52.224 19.456-72.192-0.512z" fill="#bfbfbf" p-id="2533"></path><path d="M358.4 927.232l379.392-379.392c19.968-19.968 19.968-52.224 0-72.192-19.968-19.968-52.224-19.968-72.192 0L286.208 855.04c-19.968 19.968-19.968 52.224 0 72.192 19.968 19.968 52.224 19.968 72.192 0z" fill="#bfbfbf" p-id="2534"></path></svg>