<?xml version="1.0" standalone="no"?><!DOCTYPE svg PUBLIC "-//W3C//DTD SVG 1.1//EN" "http://www.w3.org/Graphics/SVG/1.1/DTD/svg11.dtd"><svg t="1554364951786" class="icon" style="" viewBox="0 0 1024 1024" version="1.1" xmlns="http://www.w3.org/2000/svg" p-id="2163" xmlns:xlink="http://www.w3.org/1999/xlink" width="128" height="128"><defs><style type="text/css"></style></defs><path d="M512 1024A512 512 0 1 1 512 0a512 512 0 0 1 0 1024z m0-64A448 448 0 1 0 512 64a448 448 0 0 0 0 896z" fill="#515151" p-id="2164"></path><path d="M519.424 256c45.888 0 82.624 11.968 110.912 37.248 27.52 24.64 41.664 58.432 41.664 100.608 0 34.432-9.152 63.296-26.112 85.76-6.4 7.744-26.176 26.048-60.096 54.912a122.368 122.368 0 0 0-28.928 35.84c-7.808 14.08-11.328 29.568-11.328 47.104v11.968h-75.52v-11.968c0-25.984 4.16-48.512 14.08-68.224 9.92-18.944 26.112-38.656 48.768-58.368 22.592-21.12 37.44-34.432 43.072-40.768 12.736-16.192 19.776-33.088 19.776-51.328 0-24.64-7.04-43.648-21.184-57.664-14.08-14.08-33.92-21.12-59.328-21.12-31.104 0-54.4 9.856-69.248 29.568-12.736 16.832-19.072 41.472-19.072 72.384H352c0-51.328 15.552-91.392 45.184-120.96C426.88 270.784 467.84 256 519.424 256z m-12.032 411.456c14.848 0 27.52 4.224 37.44 14.08 9.92 9.088 14.848 21.056 14.848 35.84 0 14.72-4.928 26.688-14.848 36.544a56.256 56.256 0 0 1-37.44 14.08 49.152 49.152 0 0 1-36.032-14.72 46.784 46.784 0 0 1-15.488-35.904 44.8 44.8 0 0 1 15.488-35.84 48.576 48.576 0 0 1 36.032-14.08z" fill="#515151" p-id="2165"></path></svg>