<?xml version="1.0" standalone="no"?><!DOCTYPE svg PUBLIC "-//W3C//DTD SVG 1.1//EN" "http://www.w3.org/Graphics/SVG/1.1/DTD/svg11.dtd"><svg t="1555920810670" class="icon" style="" viewBox="0 0 1024 1024" version="1.1" xmlns="http://www.w3.org/2000/svg" p-id="1988" xmlns:xlink="http://www.w3.org/1999/xlink" width="64" height="64"><defs><style type="text/css"></style></defs><path d="M982.8352 312.4224c-25.8048-60.928-62.5664-115.5072-109.568-162.5088-46.8992-46.8992-101.5808-83.8656-162.5088-109.568C647.68 13.7216 580.8128 0.2048 511.7952 0.2048S375.808 13.7216 312.832 40.3456c-60.8256 25.7024-115.5072 62.6688-162.5088 109.568-47.0016 47.0016-83.8656 101.5808-109.568 162.5088C14.1312 375.5008 0.6144 442.4704 0.6144 511.3856c0 69.0176 13.5168 135.9872 40.1408 198.9632 25.7024 60.8256 62.5664 115.5072 109.568 162.5088 46.8992 46.8992 101.5808 83.8656 162.5088 109.568 63.0784 26.624 129.9456 40.1408 198.9632 40.1408s135.9872-13.5168 198.9632-40.1408c60.8256-25.7024 115.5072-62.5664 162.5088-109.568 47.0016-46.8992 83.7632-101.5808 109.568-162.5088 26.624-63.0784 40.1408-129.9456 40.1408-198.9632s-13.5168-135.9872-40.1408-198.9632z m-65.536 370.2784c-22.1184 52.4288-53.8624 99.4304-94.3104 139.8784-40.1408 40.1408-87.552 72.192-139.8784 94.3104-54.272 22.9376-111.9232 34.6112-171.3152 34.6112-59.392 0-117.0432-11.6736-171.3152-34.6112-52.4288-22.1184-99.4304-53.8624-139.8784-94.3104-40.1408-40.1408-72.192-87.6544-94.3104-139.8784C83.3536 628.4288 71.68 570.7776 71.68 511.3856s11.6736-117.0432 34.6112-171.3152c22.1184-52.3264 54.1696-99.84 94.3104-139.8784 40.0384-40.1408 87.552-72.192 139.8784-94.3104 54.272-22.9376 111.9232-34.6112 171.3152-34.6112 59.392 0 117.0432 11.6736 171.3152 34.6112 52.4288 22.1184 99.4304 53.8624 139.8784 94.3104 40.2432 40.0384 72.192 87.552 94.3104 139.8784 22.9376 54.272 34.6112 111.9232 34.6112 171.3152s-11.6736 117.0432-34.6112 171.3152z m0 0" p-id="1989" data-spm-anchor-id="a313x.7781069.0.i0" class="selected" fill="#A09148"></path><path d="M555.1104 589.9264c-2.9696 32.0512-23.3472 47.104-43.4176 47.104-14.9504 0 0 0 0 0-19.1488-3.584-33.9968-11.776-40.448-44.2368l-26.3168-303.3088c0-30.5152 37.0688-57.4464 68.5056-57.4464 31.4368 0 65.3312 28.16 65.3312 58.6752l-23.6544 299.2128z m-43.3152 86.8352c-31.4368 0-56.9344 25.4976-56.9344 56.9344 0 31.4368 25.4976 57.0368 56.9344 57.0368 31.4368 0 56.9344-25.4976 56.9344-57.0368 0-31.4368-25.4976-56.9344-56.9344-56.9344z m0 0" p-id="1990" data-spm-anchor-id="a313x.7781069.0.i1" class="selected" fill="#A09148"></path></svg>