<?xml version="1.0" standalone="no"?><!DOCTYPE svg PUBLIC "-//W3C//DTD SVG 1.1//EN" "http://www.w3.org/Graphics/SVG/1.1/DTD/svg11.dtd"><svg t="1553743430723" class="icon" style="" viewBox="0 0 1024 1024" version="1.1" xmlns="http://www.w3.org/2000/svg" p-id="2101" xmlns:xlink="http://www.w3.org/1999/xlink" width="48" height="48"><defs><style type="text/css"></style></defs><path d="M118.709677 928.516129c-10.83871 0-19.612903-8.774194-19.612903-19.612903V265.806452l75.870968-134.193549c10.322581-19.612903 28.903226-30.967742 49.548387-30.967742h574.451613c21.677419 0 41.290323 11.870968 51.096774 30.451613l77.419355 136.258065v641.548387c0 10.83871-8.774194 19.612903-19.612903 19.612903H118.709677z m35.612904-617.290323c-9.290323 0-16 7.225806-16 16v545.548388c0 9.290323 7.225806 16 16 16h717.419354c9.290323 0 16-7.225806 16-16V327.741935c0-9.290323-7.225806-16-16-16h-717.419354z m374.709677-171.870967v139.870967h343.741936c5.677419 0 10.83871-3.096774 14.451612-8.258064 3.096774-5.16129 3.096774-11.354839 0-16l-50.064516-86.193548c-6.709677-15.483871-21.677419-26.83871-38.709677-29.419355h-269.935484z m-389.677419 115.096774c-3.096774 5.16129-3.096774 11.354839 0 16 3.096774 4.645161 8.258065 8.258065 14.451613 8.258064H496.516129v-139.354838h-269.935484c-16.516129 2.580645-31.483871 13.935484-38.709677 29.419355l-48.516129 85.677419z m389.677419 530.580645v-39.225806h254.451613v39.225806h-254.451613z m71.741936-143.483871v-39.225806h182.709677v39.225806h-182.709677z" fill="#333333" p-id="2102"></path><path d="M118.709677 928.516129c-10.83871 0-19.612903-8.774194-19.612903-19.612903V265.806452l75.870968-134.193549c10.322581-19.612903 28.903226-30.967742 49.548387-30.967742h574.451613c21.677419 0 41.290323 11.870968 51.096774 30.451613l77.419355 136.258065v641.548387c0 10.83871-8.774194 19.612903-19.612903 19.612903H118.709677z m19.612904-39.741935H888.774194V311.225806H138.322581V888.774194z m390.709677-609.548388h372.129032L837.16129 168.258065c-6.709677-15.483871-21.16129-26.83871-37.677419-29.419355H529.548387v139.870967l-0.516129 0.516129z m-404.129032 0h371.096774v-139.870967h-268.903226c-16.516129 2.580645-30.967742 13.935484-37.677419 29.419355L124.903226 279.225806z m404.129032 505.806452v-39.225806h254.451613v39.225806h-254.451613z m71.741936-143.483871v-39.225806h182.709677v39.225806h-182.709677z" fill="#333333" p-id="2103"></path></svg>