<?xml version="1.0" standalone="no"?><!DOCTYPE svg PUBLIC "-//W3C//DTD SVG 1.1//EN" "http://www.w3.org/Graphics/SVG/1.1/DTD/svg11.dtd"><svg t="1554778451180" class="icon" style="" viewBox="0 0 1024 1024" version="1.1" xmlns="http://www.w3.org/2000/svg" p-id="2962" xmlns:xlink="http://www.w3.org/1999/xlink" width="48" height="48"><defs><style type="text/css"></style></defs><path d="M165.54666667 888.94122667V469.01930667h-38.17472v458.09664h267.22304v-38.17472H165.54666667zM852.69162667 469.01930667v419.92192H623.64330667v38.17472h267.22304V469.01930667h-38.17472z" fill="#272635" p-id="2963"></path><path d="M45.056 469.01930667h120.49066667v38.22933333H45.056zM852.69162667 469.01930667h125.40586666v38.22933333h-125.40586666zM509.11914667 583.54346667a152.69888 152.69888 0 0 0-152.69888 152.69888v152.69888h38.22933333V736.24234667a114.52416 114.52416 0 0 1 229.04832 0v152.69888h38.22933333V736.24234667A152.69888 152.69888 0 0 0 509.11914667 583.54346667zM924.11221333 469.01930667L548.11306667 73.9328c-14.90944-14.90944-58.1632-14.90944-73.07264 0L99.04128 469.01930667H45.056L448.04778667 46.94016c29.81888-29.81888 97.23904-29.81888 127.05792 0l402.99178666 422.07914667z" fill="#272635" p-id="2964"></path></svg>