<?xml version="1.0" standalone="no"?><!DOCTYPE svg PUBLIC "-//W3C//DTD SVG 1.1//EN" "http://www.w3.org/Graphics/SVG/1.1/DTD/svg11.dtd"><svg t="1553824270429" class="icon" style="" viewBox="0 0 1024 1024" version="1.1" xmlns="http://www.w3.org/2000/svg" p-id="2089" xmlns:xlink="http://www.w3.org/1999/xlink" width="30" height="30"><defs><style type="text/css"></style></defs><path d="M512 68.266667c261.461333 0 443.733333 107.861333 443.733333 204.8s-182.272 204.8-443.733333 204.8S68.266667 370.005333 68.266667 273.066667s182.272-204.8 443.733333-204.8m0-68.266667C229.376 0 0 122.197333 0 273.066667s229.376 273.066667 512 273.066666 512-122.197333 512-273.066666-229.376-273.066667-512-273.066667zM921.6 587.434667v89.088A112.298667 112.298667 0 0 1 955.733333 750.933333c0 96.938667-182.272 204.8-443.733333 204.8S68.266667 847.872 68.266667 750.933333a112.298667 112.298667 0 0 1 34.133333-74.410666v-89.088c-64.170667 45.738667-102.4 102.4-102.4 163.498666 0 150.869333 229.376 273.066667 512 273.066667s512-122.197333 512-273.066667c0-61.44-38.229333-117.76-102.4-163.498666z" fill="#ffffff" p-id="2090"></path><path d="M921.6 348.501333v89.088A112.298667 112.298667 0 0 1 955.733333 512c0 96.938667-182.272 204.8-443.733333 204.8S68.266667 608.938667 68.266667 512a112.298667 112.298667 0 0 1 34.133333-74.410667v-89.088c-64.170667 45.738667-102.4 102.4-102.4 163.498667 0 150.869333 229.376 273.066667 512 273.066667s512-122.197333 512-273.066667c0-61.44-38.229333-117.76-102.4-163.498667z" fill="#ffffff" p-id="2091"></path></svg>