<?xml version="1.0" standalone="no"?><!DOCTYPE svg PUBLIC "-//W3C//DTD SVG 1.1//EN" "http://www.w3.org/Graphics/SVG/1.1/DTD/svg11.dtd"><svg t="1558008416152" class="icon" style="" viewBox="0 0 1024 1024" version="1.1" xmlns="http://www.w3.org/2000/svg" p-id="4821" xmlns:xlink="http://www.w3.org/1999/xlink" width="64" height="64"><defs><style type="text/css"></style></defs><path d="M798.666647 969.523949a106.518464 106.518464 0 0 0 100.153565-83.118099l64.585009-362.612066a102.774406 102.774406 0 0 0-106.331261-127.297989H666.688585l14.414625-36.317367a620.390494 620.390494 0 0 0 26.20841-161.743327c0-92.291042-39.499817-145.082267-87.423766-144.520659-58.968921 0-87.798172 29.578062-87.610969 115.129799 0 142.274223-128.982815 285.671664-284.361243 284.361243h-30.514077v516.680074h580.329068z m-21.902742-626.006582h80.310055a156.501645 156.501645 0 0 1 160.058501 189.823766L951.79864 894.829982a160.058501 160.058501 0 0 1-153.131993 128.608409h-580.329067a54.101645 54.101645 0 0 1-53.914443-53.16563v-516.680074a53.727239 53.727239 0 0 1 52.978428-53.914442h31.450091c124.115539 0.936015 230.259598-116.814625 230.072395-230.259598s52.604022-168.482633 140.7766-168.482632c82.369287-0.936015 141.151005 78.999634 142.08702 198.060694a705.006216 705.006216 0 0 1-19.84351 144.520658zM57.155861 458.085558v512h29.578062a26.957221 26.957221 0 1 1 0 53.914442H37.125148a33.883729 33.883729 0 0 1-23.961974-9.921755A33.134918 33.134918 0 0 1 3.241419 990.303473V437.11883a33.696527 33.696527 0 0 1 33.883729-33.696527h49.047166a26.957221 26.957221 0 0 1 0 53.914443z m0 0" fill="#888888" p-id="4822"></path></svg>