<?xml version="1.0" standalone="no"?><!DOCTYPE svg PUBLIC "-//W3C//DTD SVG 1.1//EN" "http://www.w3.org/Graphics/SVG/1.1/DTD/svg11.dtd"><svg t="1556010765169" class="icon" style="" viewBox="0 0 1024 1024" version="1.1" xmlns="http://www.w3.org/2000/svg" p-id="13803" xmlns:xlink="http://www.w3.org/1999/xlink" width="64" height="64"><defs><style type="text/css"></style></defs><path d="M511.6 958.6c-246.7 0-446.7-200-446.7-446.7s200-446.7 446.7-446.7 446.7 200 446.7 446.7-199.9 446.7-446.7 446.7z m0-61.3c212.9 0 385.5-172.6 385.5-385.5S724.5 126.4 511.6 126.4 126.2 299 126.2 511.9s172.6 385.4 385.4 385.4z" fill="#ffffff" p-id="13804"></path><path d="M426.8 321.4c-12-12-12-31.4 0-43.3 12-12 31.4-12 43.3 0l213 213c12 12 12 31.4 0 43.3L469.7 747.7c-12 12-31.4 12-43.3 0-12-12-12-31.4 0-43.3l191.7-191.7-191.3-191.3z" fill="#ffffff" p-id="13805"></path></svg>