<?xml version="1.0" standalone="no"?><!DOCTYPE svg PUBLIC "-//W3C//DTD SVG 1.1//EN" "http://www.w3.org/Graphics/SVG/1.1/DTD/svg11.dtd"><svg t="1556445672582" class="icon" style="" viewBox="0 0 1024 1024" version="1.1" xmlns="http://www.w3.org/2000/svg" p-id="4206" xmlns:xlink="http://www.w3.org/1999/xlink" width="64" height="64"><defs><style type="text/css"></style></defs><path d="M294.585 472.746h435.572v54.705H294.585z m0 214.24H563.53v54.697H294.585z m617.551-463.624a98.072 98.072 0 0 0-21.083-31.275c-9.032-9.03-19.555-16.125-31.28-21.088-12.155-5.137-25.048-7.743-38.32-7.743H753.25v-8.693c0-34.584-28.136-62.721-62.72-62.721h-59.542c-11.107-21.334-27.77-39.29-48.296-52.017A134.056 134.056 0 0 0 512 19.687a134.044 134.044 0 0 0-70.691 20.14c-20.524 12.727-37.19 30.683-48.301 52.017H333.47c-34.584 0-62.72 28.137-62.72 62.721v8.693h-68.204c-13.271 0-26.163 2.605-38.32 7.743-11.716 4.958-22.238 12.052-31.275 21.088-9.037 9.038-16.13 19.56-21.082 31.274-5.141 12.149-7.748 25.042-7.748 38.32v644.205c0 13.281 2.607 26.175 7.748 38.32 4.954 11.715 12.047 22.237 21.082 31.276 9.039 9.038 19.562 16.13 31.275 21.082 12.16 5.141 25.052 7.747 38.32 7.747h618.909c13.27 0 26.162-2.608 38.319-7.748 11.725-4.957 22.248-12.05 31.28-21.083a98.082 98.082 0 0 0 21.084-31.274c5.137-12.155 7.743-25.048 7.743-38.32V261.683c-0.001-13.274-2.607-26.167-7.745-38.32z m-90.682 726.921H202.545c-24.48 0-44.397-19.917-44.397-44.397V261.683c0-24.48 19.916-44.395 44.397-44.395h68.204v95.215h482.5v-95.215h68.205c24.484 0 44.402 19.915 44.402 44.395v644.204c0 24.48-19.918 44.396-44.402 44.396z m-385.2-822.61C447.39 95.4 477.832 73.717 512 73.717c34.168 0 64.607 21.683 75.744 53.956l6.282 18.2h96.504c4.795 0 8.696 3.9 8.696 8.692v103.908h-374.45V154.566c0-4.793 3.9-8.693 8.694-8.693h96.5l6.285-18.2z" p-id="4207" fill="#00cc66"></path></svg>