<?xml version="1.0" standalone="no"?><!DOCTYPE svg PUBLIC "-//W3C//DTD SVG 1.1//EN" "http://www.w3.org/Graphics/SVG/1.1/DTD/svg11.dtd"><svg t="1554801966521" class="icon" style="" viewBox="0 0 1024 1024" version="1.1" xmlns="http://www.w3.org/2000/svg" p-id="14025" xmlns:xlink="http://www.w3.org/1999/xlink" width="64" height="64"><defs><style type="text/css"></style></defs><path d="M512 512m-447.78 0a447.78 447.78 0 1 0 895.56 0 447.78 447.78 0 1 0-895.56 0Z" fill="#04b659" p-id="14026"></path><path d="M729.87 334.76L415.58 633l-99.27-92.44a48.32 48.32 0 0 0-67 1.07l-0.59 0.58a48.32 48.32 0 0 0 0.71 69.28l164.09 156.29h0.86l382-362.93a48.32 48.32 0 0 0 0.15-69.92 48.32 48.32 0 0 0-66.66-0.17z" fill="#FFFCF3" p-id="14027"></path></svg>