<?xml version="1.0" standalone="no"?><!DOCTYPE svg PUBLIC "-//W3C//DTD SVG 1.1//EN" "http://www.w3.org/Graphics/SVG/1.1/DTD/svg11.dtd"><svg t="1559546013769" class="icon" style="" viewBox="0 0 1024 1024" version="1.1" xmlns="http://www.w3.org/2000/svg" p-id="31265" xmlns:xlink="http://www.w3.org/1999/xlink" width="64" height="64"><defs><style type="text/css"></style></defs><path d="M906.40889 680.800141c-14.269889 0-25.830305 11.560416-26.010936 25.830305v131.860999c0 28.720409-23.301464 52.021873-52.021874 52.021873H103.863115c-28.720409 0-52.021873-23.301464-52.021873-52.021873V168.890457c0-28.720409 23.301464-52.021873 52.021873-52.021873h724.693597c28.720409 0 52.021873 23.301464 52.021873 52.021873v139.628153c0 14.269889 11.560416 26.010937 26.010937 26.010937 14.269889 0 26.010937-11.560416 26.010937-26.010937V163.832775c0-54.550714-44.254719-98.805433-98.805433-98.805433H98.805433C44.254719 64.84671 0 109.101429 0 163.652143v680.077615c0 54.550714 44.254719 98.805433 98.805433 98.805433h734.989593c54.550714 0 98.805433-44.254719 98.805433-98.805433v-137.099312c-0.180632-14.269889-11.741048-25.830305-26.191569-25.830305z m18.966308-309.78303H546.771565c-51.118716 0-92.663962 39.016405-97.721644 88.8707-0.541895 0.903158-0.903158 2.167578-1.083789 4.515788v82.187334c0 54.550714 44.254719 98.805433 98.805433 98.805433h378.423002c54.550714 0 98.805433-44.254719 98.805433-98.805433v-76.768389c0-54.550714-44.074087-98.805433-98.624802-98.805433z m46.78356 170.335509c0 28.720409-23.301464 52.021873-52.021873 52.021873H552.009878c-28.720409 0-52.021873-23.301464-52.021873-52.021873V475.060857c0-28.720409 23.301464-52.021873 52.021873-52.021873h368.127007c28.720409 0 52.021873 23.301464 52.021873 52.021873v66.291763zM890.513318 475.964015c-17.521256 0-31.791145 14.269889-31.791145 31.791145 0 17.521256 14.269889 31.610513 31.791145 31.610513 17.521256 0 31.791145-14.269889 31.791145-31.610513-0.180632-17.701887-14.269889-31.791145-31.791145-31.791145z" fill="#00cc66" p-id="31266"></path></svg>