<?xml version="1.0" standalone="no"?><!DOCTYPE svg PUBLIC "-//W3C//DTD SVG 1.1//EN" "http://www.w3.org/Graphics/SVG/1.1/DTD/svg11.dtd"><svg t="1554083100965" class="icon" style="" viewBox="0 0 1024 1024" version="1.1" xmlns="http://www.w3.org/2000/svg" p-id="3080" xmlns:xlink="http://www.w3.org/1999/xlink" width="30" height="30"><defs><style type="text/css"></style></defs><path d="M425.4 314.1l-35.9 32.7c-19.2 57.1 0.7 163.8 62.1 225.2 61.3 61.3 179 87.4 236.1 68.4l30.6-33.4 211.4 211.4-19.5 23.4c-5.3 7.6-11.3 14.6-17.8 21.2-57.1 57.1-153.5 68.8-262.5 39-106.2-29.1-217.4-95.6-310.3-188.5-92.8-93-159.5-204.3-188.6-310.6-29.9-109-18.3-205.6 38.8-262.7 6.5-6.5 13.6-12.5 21.2-17.8l23.4-19.5 211 211.2z" fill="#2DC888" p-id="3081"></path><path d="M420.1 319.1L209 108.1 286.2 44l205.6 209.8-71.7 65.3zM712.9 612l67.8-74.2 207.6 208.4-64.1 77.2L712.9 612z" fill="#89E0BC" p-id="3082"></path></svg>