<svg t="1553313931773" class="icon" viewBox="0 0 1304 1024" version="1.1" xmlns="http://www.w3.org/2000/svg" p-id="8074" height="17" width="17"><path d="M1090.143541 1024h-986.709198a102.073365 102.073365 0 0 1-102.073365-102.073365V347.457735h40.829346v574.4689a61.244019 61.244019 0 0 0 61.244019 61.244019h986.709198a61.244019 61.244019 0 0 0 61.244019-61.244019V210.815524a61.244019 61.244019 0 0 0-61.244019-61.244019h-986.709198a61.244019 61.244019 0 0 0-61.244019 61.244019h-40.829346a102.073365 102.073365 0 0 1 102.073365-102.073366h986.709198a102.073365 102.073365 0 0 1 102.073365 102.073366v711.111111a102.073365 102.073365 0 0 1-102.073365 102.073365z" fill="#8a8a8a" p-id="8075"></path><path d="M1.360978 190.196704m20.414673 0l0 0q20.414673 0 20.414673 20.414673l0 152.701754q0 20.414673-20.414673 20.414673l0 0q-20.414673 0-20.414673-20.414673l0-152.701754q0-20.414673 20.414673-20.414673Z" fill="#8a8a8a" p-id="8076"></path><path d="M342.694312 418.909091m-65.803297 0a65.803296 65.803296 0 1 0 131.606593 0 65.803296 65.803296 0 1 0-131.606593 0Z" fill="#8a8a8a" p-id="8077"></path><path d="M0.006805 846.011271L252.325359 574.482509l29.907496 27.791175-252.318554 271.528762z" fill="#8a8a8a" p-id="8078"></path><path d="M225.289527 605.05008l27.587028-30.098033 233.203615 213.768846-27.587028 30.098033z" fill="#8a8a8a" p-id="8079"></path><path d="M433.97512 784.86252l314.624136-338.570548 29.907496 27.791175-314.624136 338.577353z" fill="#8a8a8a" p-id="8080"></path><path d="M721.270813 476.594152l27.587029-30.098033 433.709728 397.562148-27.587028 30.091228z" fill="#8a8a8a" p-id="8081"></path><path d="M1202.152047 837.818182v-40.829346a61.244019 61.244019 0 0 0 61.244019-61.244019V102.073365a61.244019 61.244019 0 0 0-61.244019-61.244019h-986.709197a61.244019 61.244019 0 0 0-61.24402 61.244019h-40.829346a102.073365 102.073365 0 0 1 102.073366-102.073365h986.709197a102.073365 102.073365 0 0 1 102.073365 102.073365v633.671452a102.073365 102.073365 0 0 1-102.073365 102.073365z" fill="#8a8a8a" p-id="8082"></path></svg>