<?xml version="1.0" standalone="no"?><!DOCTYPE svg PUBLIC "-//W3C//DTD SVG 1.1//EN" "http://www.w3.org/Graphics/SVG/1.1/DTD/svg11.dtd"><svg t="1556005474351" class="icon" style="" viewBox="0 0 1204 1024" version="1.1" xmlns="http://www.w3.org/2000/svg" p-id="17732" xmlns:xlink="http://www.w3.org/1999/xlink" width="75.25" height="64"><defs><style type="text/css"></style></defs><path d="M1204.705882 0v1024H0L1204.705882 0z m-395.926588 932.141176l318.825412-349.424941c21.684706-23.371294 22.889412-59.934118 1.204706-83.305411a52.705882 52.705882 0 0 0-78.486588 0l-296.96 318.343529-116.495059-112.941177a52.705882 52.705882 0 0 0-78.486589 0 63.186824 63.186824 0 0 0 0 84.630589l144.745412 145.408c3.915294 4.397176 6.384941 6.083765 11.083294 10.179764 10.962824 9.517176 19.154824 13.372235 30.840471 17.28753 17.287529 4.216471 35.779765-0.602353 49.513412-15.420235 4.276706-4.638118 9.637647-9.878588 14.215529-14.757648z" p-id="17733" fill="#00cc66"></path></svg>