<?xml version="1.0" standalone="no"?><!DOCTYPE svg PUBLIC "-//W3C//DTD SVG 1.1//EN" "http://www.w3.org/Graphics/SVG/1.1/DTD/svg11.dtd"><svg t="1553570139194" class="icon" style="" viewBox="0 0 1024 1024" version="1.1" xmlns="http://www.w3.org/2000/svg" p-id="2727" xmlns:xlink="http://www.w3.org/1999/xlink" width="48" height="48"><defs><style type="text/css"></style></defs><path d="M260.16 989.44c-15.04 0-27.30666667-12.26666667-27.30666667-27.30666667 0-15.04 12.16-27.30666667 27.30666667-27.30666666h476.37333333c1.38666667-0.32 2.02666667-0.32 3.41333334-0.42666667 29.12-1.17333333 56.10666667-17.38666667 70.50666666-42.24 0.64-1.92 100.26666667-252.16 119.57333334-324.16 8.96-33.6 4.37333333-68.69333333-13.01333334-98.88-17.38666667-30.18666667-45.54666667-51.73333333-79.14666666-60.8-9.92-2.66666667-20.58666667-3.94666667-33.6-3.94666667l-105.6-0.42666666c-8.21333333 0-16-3.73333333-21.22666667-10.24-5.12-6.4-7.14666667-14.82666667-5.33333333-22.93333334 12.69333333-58.13333333 14.61333333-148.37333333 14.61333333-197.01333333 0-47.04-38.29333333-85.33333333-85.33333333-85.33333333s-85.33333333 38.29333333-85.33333334 85.33333333V196.26666667c0 139.2-113.28 252.48-252.48 252.48H151.04c-34.66666667 0-62.82666667 28.16-62.82666667 62.82666666v360.32c0 34.66666667 28.16 62.82666667 62.82666667 62.82666667 15.04 0 27.30666667 12.26666667 27.30666667 27.30666667 0 15.04-12.16 27.30666667-27.30666667 27.30666666-64.74666667 0-117.33333333-52.69333333-117.33333333-117.33333333V511.68c0-64.74666667 52.69333333-117.33333333 117.33333333-117.33333333h112.64c109.12 0 197.86666667-88.74666667 197.86666667-197.86666667V173.86666667c0-77.12 62.72-139.94666667 139.94666666-139.94666667S741.33333333 96.74666667 741.33333333 173.86666667c0 51.41333333-1.92 119.57333333-10.02666666 175.68l73.06666666 0.32c17.81333333 0 32.96 1.81333333 47.68 5.76 47.68 12.8 87.46666667 43.41333333 112.21333334 86.18666666s31.36 92.58666667 18.56 140.26666667C962.66666667 657.17333333 864.96 902.50666667 860.8 912.96c-0.96 2.34666667-2.02666667 4.58666667-3.30666667 6.72-23.14666667 40.10666667-66.56 66.56-113.49333333 69.12-2.45333333 0.32-4.90666667 0.53333333-7.46666667 0.53333333l-476.37333333 0.10666667z" fill="#AAAAAA" p-id="2728"></path><path d="M227.30666667 932.05333333h-95.36c-26.34666667 0-47.68-21.44-47.68-47.68V502.82666667c0-26.34666667 21.44-47.68 47.68-47.68h95.36v476.90666666z" fill="#F2F2F2" p-id="2729"></path><path d="M250.24 982.93333333c-15.04 0-27.30666667-12.26666667-27.30666667-27.30666666V464c0-15.04 12.16-27.30666667 27.30666667-27.30666667 15.04 0 27.30666667 12.26666667 27.30666667 27.30666667v491.62666667c0 15.14666667-12.26666667 27.30666667-27.30666667 27.30666666z" fill="#AAAAAA" p-id="2730"></path></svg>