<?xml version="1.0" standalone="no"?><!DOCTYPE svg PUBLIC "-//W3C//DTD SVG 1.1//EN" "http://www.w3.org/Graphics/SVG/1.1/DTD/svg11.dtd"><svg t="1558444530289" class="icon" style="" viewBox="0 0 1026 1024" version="1.1" xmlns="http://www.w3.org/2000/svg" p-id="3468" xmlns:xlink="http://www.w3.org/1999/xlink" width="64.125" height="64"><defs><style type="text/css"></style></defs><path d="M513.617 0C230.845 0 1.61 229.227 1.61 511.997S230.845 1024 513.616 1024s511.997-229.23 511.997-512.003S796.388 0 513.617 0z m-3.328 867.554c-30.688 0-55.566-24.877-55.566-55.565s24.878-55.566 55.566-55.566c30.688 0 55.56 24.878 55.56 55.566s-24.872 55.565-55.56 55.565z m200.855-449.178c-10.05 21.161-31.532 47.484-64.354 79.04-32.87 31.552-54.626 53.977-65.369 67.3-10.74 13.35-18.9 29.276-24.386 47.805-5.533 18.532-7.974 43.428-7.327 74.635h-85.836c0-36.417 2.902-65.505 8.756-87.31 5.858-21.78 14.662-40.823 26.37-57.07 11.711-16.25 32.825-40.152 63.387-71.705 30.564-31.532 50.25-54.47 59.006-68.781 8.804-14.29 13.184-35.611 13.184-63.891 0-28.303-10.097-53.338-30.24-75.118-20.146-21.78-49.418-32.685-87.772-32.685-86.526 0-129.766 51.379-129.766 154.128H300.96c1.294-46.832 6.826-82.42 16.55-106.828 9.77-24.387 25.4-46.17 46.836-65.345 21.482-19.179 45.358-33.331 71.728-42.432 26.326-9.107 54.12-13.671 83.392-13.671 59.19 0 108.425 17.405 147.794 52.184 39.369 34.805 59.005 81.154 59.005 139.032 0 26.023-5.027 49.602-15.12 70.712z" fill="#999999" p-id="3469"></path></svg>