<?xml version="1.0" standalone="no"?><!DOCTYPE svg PUBLIC "-//W3C//DTD SVG 1.1//EN" "http://www.w3.org/Graphics/SVG/1.1/DTD/svg11.dtd"><svg t="1558442132010" class="icon" style="" viewBox="0 0 1024 1024" version="1.1" xmlns="http://www.w3.org/2000/svg" p-id="2145" xmlns:xlink="http://www.w3.org/1999/xlink" width="64" height="64"><defs><style type="text/css"></style></defs><path d="M512 512m-512 0a512 512 0 1 0 1024 0 512 512 0 1 0-1024 0Z" fill="#00cc66" p-id="2146" data-spm-anchor-id="a313x.7781069.0.i5" class="selected"></path><path d="M419.498667 593.578667a262.826667 262.826667 0 0 1-52.565334 100.352 382.293333 382.293333 0 0 1-120.832 77.141333l30.72 38.912a399.530667 399.530667 0 0 0 131.754667-93.525333 336.9984 336.9984 0 0 0 56.661333-122.88h167.253334a454.894933 454.894933 0 0 1-18.432 136.533333 56.866133 56.866133 0 0 1-57.344 30.72c-28.330667 0-58.368-0.682667-90.794667-2.048l12.970667 45.738667h101.717333a84.8896 84.8896 0 0 0 61.44-23.893334 159.232 159.232 0 0 0 27.989333-79.872c4.437333-37.205333 7.850667-86.016 10.24-146.773333a671.982933 671.982933 0 0 0 101.717334 68.949333l31.402666-40.277333a437.9648 437.9648 0 0 1-170.666666-125.610667h149.504v-45.056h-339.285334a497.2544 497.2544 0 0 0 37.546667-75.093333h264.192V293.205333h-107.178667a390.075733 390.075733 0 0 0 58.026667-99.669333l-40.96-15.018667a368.3328 368.3328 0 0 1-53.930667 94.890667l34.816 19.797333h-138.581333a820.224 820.224 0 0 0 26.624-110.592l-48.469333-6.144a772.4032 772.4032 0 0 1-27.989334 116.736H242.688v43.690667h196.608a509.474133 509.474133 0 0 1-40.96 75.093333H205.141333v45.056h158.378667a496.981333 496.981333 0 0 1-179.541333 126.976l27.306666 41.642667a641.194667 641.194667 0 0 0 111.957334-68.949333v36.864h96.256z m173.397333-136.533334a374.920533 374.920533 0 0 0 81.237333 91.477334H334.165333a521.4208 521.4208 0 0 0 88.064-91.477334h170.666667zM297.984 196.266667a645.597867 645.597867 0 0 1 52.565333 96.256l39.594667-18.432a555.554133 555.554133 0 0 0-49.834667-91.477334z" fill="#FFFEFE" p-id="2147" data-spm-anchor-id="a313x.7781069.0.i6" class=""></path></svg>