<?xml version="1.0" standalone="no"?><!DOCTYPE svg PUBLIC "-//W3C//DTD SVG 1.1//EN" "http://www.w3.org/Graphics/SVG/1.1/DTD/svg11.dtd"><svg t="1556008155551" class="icon" style="" viewBox="0 0 1105 1024" version="1.1" xmlns="http://www.w3.org/2000/svg" p-id="27586" xmlns:xlink="http://www.w3.org/1999/xlink" width="69.0625" height="64"><defs><style type="text/css"></style></defs><path d="M400.96768 407.23456l29.80864-28.61568c-27.8272-29.80864-68.7616-62.98624-122.80832-99.5584l-23.84384 29.21472C333.0048 338.07872 371.95264 371.072 400.96768 407.23456z" p-id="27587" fill="#00cc66"></path><path d="M414.67904 665.96352c15.89248 3.57888 29.40928 10.53696 40.54016 20.864 20.27008-39.73632 34.9696-76.6976 44.11392-110.88384 9.1392-34.176 13.71136-84.05504 13.71136-149.63712l204.48256 0c-12.32384 44.11904-32.78848 84.45952-61.40416 121.02144-28.61568-28.21632-59.22304-56.0384-91.81184-83.46112l-26.22976 26.23488c27.02336 20.27008 58.61888 48.49664 94.79168 84.65408-34.97984 36.96128-80.68608 69.36064-137.11872 97.17248 15.49824 5.57056 28.41088 15.104 38.74816 28.61568 50.07872-32.19456 91.2128-65.58208 123.40736-100.15744 29.80352 31.40096 58.81344 64.5888 87.03488 99.55328l33.98656-26.82368c-40.15104-42.92608-72.73472-76.50304-97.77152-100.75136 39.3472-49.67424 67.15904-109.69088 83.46112-180.03968-28.22656 2.38592-63.39584 3.57888-105.51808 3.57888l-146.05824 0L513.04448 324.36736c16.6912 0 39.73632-0.7936 69.15072-2.38592 29.40928-1.58208 59.41248-4.56192 90.01984-8.94464 30.60224-4.36736 55.44448-6.55872 74.5216-6.55872 6.35392 0 11.02848 0.39936 14.00832 1.19296 2.97984 0.80384 5.8624 1.19296 8.64256 1.19296 2.77504 0 4.1728-1.19296 4.1728-3.57888s-2.38592-5.56032-7.15264-9.53856c-12.32384-10.33216-23.64928-22.85056-33.98144-37.5552-23.45472 13.5168-54.656 22.75328-93.59872 27.71968-38.95296 4.97664-94.39744 6.85568-166.32832 5.66272 3.968 25.84064 5.9648 68.46464 5.9648 127.87712 0 59.4176-4.08064 106.81344-12.22144 142.18752C458.09664 597.01248 440.9088 631.78752 414.67904 665.96352z" p-id="27588" fill="#00cc66"></path><path d="M501.12 718.42816c-31.40096-5.57056-57.63072-14.70976-78.6944-27.42272-7.95648-4.77184-15.70304-8.94464-23.24992-12.5184l0-152.61696c0-31.79008 1.792-55.44448 5.36576-70.94272-21.0688 2.78528-43.7248 4.1728-67.95776 4.1728-24.24832 0-44.5184-1.38752-60.81024-4.1728l0 38.74816c18.2784-3.17952 47.488-4.77184 87.63904-4.77184l0 184.21248c-19.07712 3.18464-51.67104 24.43776-97.77152 63.79008 14.69952 7.54688 26.42432 17.67936 35.1744 30.40256 16.6912-20.27008 30.8992-35.1744 42.624-44.71296 11.71968-9.53856 22.25152-14.30528 31.59552-14.30528 9.33376 0 20.36224 4.16768 33.08544 12.51328 25.43104 16.69632 58.91584 28.11392 100.4544 34.2784 41.5232 6.15936 99.26144 9.2416 173.184 9.2416 32.98304 0 71.33696-0.59392 115.06176-1.78688 0.78848-17.88416 5.56032-32.99328 14.30528-45.312-77.11232 6.35392-140.20096 9.53856-189.28128 9.53856C572.75392 726.77376 532.51584 723.98848 501.12 718.42816z" p-id="27589" fill="#00cc66"></path><path d="M538.43968 64.63488c-254.5664 0-461.6704 207.10912-461.6704 461.67552 0 254.5664 207.104 461.6704 461.6704 461.6704s461.6704-207.104 461.6704-461.6704C1000.11008 271.744 793.00608 64.63488 538.43968 64.63488zM538.43968 947.0208c-231.98208 0-420.7104-188.72832-420.7104-420.7104 0-231.98208 188.72832-420.71552 420.7104-420.71552s420.7104 188.73344 420.7104 420.71552C959.15008 758.29248 770.41664 947.0208 538.43968 947.0208z" p-id="27590" fill="#00cc66"></path></svg>