<?xml version="1.0" standalone="no"?><!DOCTYPE svg PUBLIC "-//W3C//DTD SVG 1.1//EN" "http://www.w3.org/Graphics/SVG/1.1/DTD/svg11.dtd"><svg t="1554290548505" class="icon" style="" viewBox="0 0 1137 1024" version="1.1" xmlns="http://www.w3.org/2000/svg" p-id="17355" xmlns:xlink="http://www.w3.org/1999/xlink" width="33.310546875" height="30"><defs><style type="text/css"></style></defs><path d="M567.466667 784.099556v216.746666c0 16.384-12.288 22.186667-22.812445 22.186667-10.524444 0-22.755556-5.802667-22.755555-22.186667v-218.396444l-12.401778-1.308445c-162.759111-17.237333-297.813333-110.990222-343.950222-238.819555-30.321778-84.195556-26.339556-182.272-22.528-277.162667 1.251556-31.459556 2.446222-61.212444 2.446222-90.453333 0-11.832889 10.808889-22.186667 23.096889-22.186667 64.512 1.479111 111.957333 18.375111 172.088889 46.990222l15.246222 7.224889 4.437333-15.530666a269.653333 269.653333 0 0 1 62.008889-111.104C472.860444 26.965333 514.958222 0 547.498667 0c42.496 0 98.133333 44.373333 131.811555 85.560889a260.551111 260.551111 0 0 1 54.272 108.316444l3.697778 15.758223 15.587556-6.599112c64.910222-27.420444 120.035556-48.583111 188.643555-50.517333 11.946667 0 22.755556 10.524444 22.755556 22.072889-0.455111 64.284444-1.763556 129.592889-3.072 192.967111l-0.227556 25.258667c-0.227556 46.136889-0.455111 93.866667-15.928889 136.760889-52.337778 145.066667-198.712889 247.125333-364.316444 253.952l-13.255111 0.568889z m-18.488889-43.804445c7.736889 0 15.473778-0.227556 23.210666-0.682667 162.360889-9.443556 337.009778-119.182222 340.764445-303.957333l1.479111-71.281778 0.056889-3.242666c1.080889-48.241778 2.161778-98.133333 2.446222-147.456l0.056889-15.587556-16.270222 2.56c-49.265778 7.907556-91.591111 26.112-136.760889 45.568-10.638222 4.664889-21.390222 9.216-32.085333 13.653333l-0.796445 0.398223a28.330667 28.330667 0 0 1-12.629333 2.844444c-3.527111 0-21.333333-0.910222-25.031111-17.976889l-0.341334-1.194666a17.749333 17.749333 0 0 1-0.796444-8.874667l0.284444-1.706667-0.170666-1.706666c-4.380444-43.52-19.512889-81.521778-44.942223-112.924445C630.272 97.450667 586.126222 48.071111 548.977778 48.071111a38.115556 38.115556 0 0 0-18.318222 4.494222C455.111111 93.184 405.276444 163.043556 397.312 239.445333c-1.308444 13.368889-11.093333 22.983111-23.324444 22.983111a28.330667 28.330667 0 0 1-12.401778-3.072c-6.485333-3.185778-12.8-6.257778-18.944-9.386666l-0.625778-0.284445c-44.657778-22.300444-83.171556-41.528889-133.518222-49.436444l-16.156445-2.503111v150.755555c0 10.581333-0.284444 21.333333-0.568889 32.938667-1.080889 35.441778-2.104889 72.078222 6.144 106.154667 36.295111 146.432 183.921778 252.757333 351.061334 252.757333z" fill="#272635" p-id="17356"></path><path d="M453.347556 957.269333c-56.206222-91.818667-120.035556-152.917333-184.433778-176.696889a202.183111 202.183111 0 0 0-68.494222-11.093333c-51.029333 0-118.784 18.204444-141.539556 69.575111-2.730667 6.030222-2.673778 10.865778 0.170667 14.904889 3.754667 5.290667 12.231111 8.874667 21.219555 8.874667 11.434667 0 20.821333-5.632 25.031111-15.018667l2.104889-4.835555 8.874667 3.470222-1.592889-4.266667a153.6 153.6 0 0 0 9.557333-5.688889c9.102222-5.802667 19.456-12.344889 28.216889-15.018666 16.270222-5.12 32.483556-7.623111 48.355556-7.623112 35.84 0 69.575111 12.629333 103.253333 38.684445 39.822222 30.72 76.401778 73.614222 108.771556 127.431111 4.209778 6.997333 10.24 10.581333 17.806222 10.581333 9.216 0 18.602667-5.12 23.267555-12.686222 3.982222-6.428444 3.754667-13.368889-0.568888-20.593778zM1017.400889 872.675556c8.874667 0 17.351111-3.584 21.105778-8.874667 2.844444-3.982222 2.844444-8.874667 0.170666-14.904889-22.755556-51.370667-90.510222-69.575111-141.539555-69.575111-24.974222 0-48.64 3.811556-68.551111 11.093333-81.521778 29.696-145.066667 112.526222-183.978667 176.753778-4.266667 7.111111-4.494222 13.937778-0.568889 20.309333 4.551111 7.395556 14.392889 12.8 23.438222 12.8a19.911111 19.911111 0 0 0 17.692445-10.467555 518.712889 518.712889 0 0 1 108.259555-127.032889c30.833778-26.055111 62.976-38.115556 101.262223-38.115556 10.979556 0 22.300444 0.910222 34.531555 2.901334 21.219556 3.413333 38.343111 10.012444 51.029333 19.512889 2.616889 1.991111 4.892444 4.551111 6.997334 6.997333l3.356444-1.308445 2.275556 5.347556 0.227555 0.341333 5.688889 2.446223-3.413333 1.365333a26.453333 26.453333 0 0 0 22.016 10.410667z" fill="#272635" p-id="17357"></path></svg>