<?xml version="1.0" standalone="no"?><!DOCTYPE svg PUBLIC "-//W3C//DTD SVG 1.1//EN" "http://www.w3.org/Graphics/SVG/1.1/DTD/svg11.dtd"><svg t="1555658041716" class="icon" style="" viewBox="0 0 1024 1024" version="1.1" xmlns="http://www.w3.org/2000/svg" p-id="3123" xmlns:xlink="http://www.w3.org/1999/xlink" width="64" height="64"><defs><style type="text/css"></style></defs><path d="M512.114 0.024c282.258 0 511.156 228.85 511.156 511.142 0 282.304-228.9 511.154-511.156 511.154C229.782 1022.32 0.966 793.47 0.966 511.166 0.966 228.874 229.782 0.024 512.114 0.024z m-1.524 875.548c40.82 0 73.844-33.028 73.844-73.85 0-40.792-33.024-73.85-73.844-73.85-40.828 0-73.852 33.06-73.852 73.85 0 40.826 33.024 73.85 73.852 73.85z m96.71-548.96a98.79 98.79 0 0 0 2.044-20.03c0-54.58-44.158-98.772-98.766-98.772-54.616 0-98.768 44.194-98.768 98.772 0.01 6.73 0.7 13.44 2.064 20.032 0 0.134 0.06 0.396 0.06 0.396l0.062 0.368 0.106 0.532 0.034 0.2 0.066 0.398 0.064 0.326 0.064 0.374 0.064 0.398c0.034 0.17 0.134 0.496 0.134 0.496l0.036 0.264c0.028 0.1 0.028 0.204 0.028 0.204 0.07 0.264 0.106 0.526 0.106 0.526l0.064 0.368c0.036 0.106 0.07 0.334 0.07 0.334l0.1 0.566 0.064 0.17 0.07 0.398s0.036 0.268 0.064 0.368l0.07 0.368 0.064 0.398c0 0.164 0.06 0.332 0.1 0.502l0.036 0.228 0.07 0.234c0.028 0.234 54.982 259.666 60.764 282.156 5.774 22.504 15.604 36.386 34.338 36.386 18.698 0 29.616-12.012 33.906-33.912 4.296-21.9 0-0.04 0-0.04 0.036-0.54 62.394-290.786 62.394-290.786l0.076-0.332 0.07-0.4 0.03-0.196 0.1-0.528 0.07-0.232c0.034-0.27 0.08-0.404 0.08-0.532z" fill="#00CC66" p-id="3124"></path></svg>