<svg t="1553312833672" class="icon" viewBox="0 0 1024 1024" version="1.1" xmlns="http://www.w3.org/2000/svg" p-id="5484" height="17" width="17"><path d="M143.872 144.896h79.872v79.872H143.872z" fill="#2c2c2c" p-id="5485"></path><path d="M367.616 1.024H0v367.104h143.872v64h79.872V368.128h143.872V288.256h64V224.768H367.616V1.024zM287.744 288.256H79.872V80.896h207.872v207.36z m0 0" fill="#2c2c2c" p-id="5486"></path><path d="M143.872 799.232h79.872v79.872H143.872zM799.232 144.896h79.872v79.872h-79.872zM511.488 505.344v86.016h79.872V512H655.36V432.128h-64V368.128H511.488v137.216z m0 0M511.488 797.184v81.92h79.872v-143.872H655.36V655.36H511.488v141.824z m0 0M591.36 879.104H655.36v64h-64zM431.616 942.592h159.744v79.872H431.616zM735.232 735.232H655.36v143.872h143.872v-79.872h-64v-64z m0 0M799.232 1022.464h223.744v-79.872h-143.872v-64h-79.872v143.872z m0 0M879.104 432.128h143.872V512h-143.872zM943.104 799.232h79.872v79.872h-79.872zM431.616 288.256h79.872v79.872H431.616z" fill="#2c2c2c" p-id="5487"></path><path d="M799.232 432.128V368.128h223.744V1.024H655.36v79.872H511.488v64H655.36v79.872h-64v64H655.36V368.64h79.872v64h64z m-64-351.232h207.872v207.36h-207.872V80.896z m0 0M735.232 591.872h64v64h-64zM879.104 735.232h-79.872v64h143.872V655.36h79.872v-64h-143.872v143.872z m0 0M431.616 144.896h79.872v79.872H431.616zM223.744 512h64v79.872H223.744z" fill="#2c2c2c" p-id="5488"></path><path d="M431.616 432.128H287.744V512h79.872v79.872h64V432.128z m0 0M367.616 879.104v-143.872h64V655.36H143.872v-143.36H0v79.872h79.872V655.36H0v367.104h367.616v-79.872h64v-64H367.616z m-79.872 63.488H79.872v-207.36h207.872v207.36z m0 0" fill="#2c2c2c" p-id="5489"></path><path d="M431.616 591.872h79.872v64H431.616zM655.36 512h79.872v79.872H655.36zM799.232 512h79.872v79.872h-79.872z" fill="#2c2c2c" p-id="5490"></path></svg>