<?xml version="1.0" standalone="no"?><!DOCTYPE svg PUBLIC "-//W3C//DTD SVG 1.1//EN" "http://www.w3.org/Graphics/SVG/1.1/DTD/svg11.dtd"><svg t="1554084616868" class="icon" style="" viewBox="0 0 1024 1024" version="1.1" xmlns="http://www.w3.org/2000/svg" p-id="16461" xmlns:xlink="http://www.w3.org/1999/xlink" width="30" height="30"><defs><style type="text/css"></style></defs><path d="M960 1024H64c-35.2 0-64-28.8-64-64V64C0 28.8 28.8 0 64 0h896c35.2 0 64 28.8 64 64v896c0 35.2-28.8 64-64 64z" fill="#9DD651" p-id="16462"></path><path d="M416 768c-12.8 0-25.6-3.2-35.2-12.8l-224-224c-19.2-19.2-19.2-48 0-67.2s48-19.2 67.2 0l192 192 380.8-384c19.2-19.2 48-19.2 67.2 0s19.2 48 0 67.2l-416 416c-6.4 6.4-19.2 12.8-32 12.8z" fill="#ffffff" p-id="16463" data-spm-anchor-id="a313x.7781069.0.i4" class="selected"></path></svg>