<?xml version="1.0" standalone="no"?><!DOCTYPE svg PUBLIC "-//W3C//DTD SVG 1.1//EN" "http://www.w3.org/Graphics/SVG/1.1/DTD/svg11.dtd"><svg t="1556085482380" class="icon" style="" viewBox="0 0 1072 1024" version="1.1" xmlns="http://www.w3.org/2000/svg" p-id="29647" xmlns:xlink="http://www.w3.org/1999/xlink" width="67" height="64"><defs><style type="text/css"></style></defs><path d="M513.074627 512m-489.074627 0a489.074627 489.074627 0 1 0 978.149254 0 489.074627 489.074627 0 1 0-978.149254 0Z" fill="#FFFFFF" p-id="29648" data-spm-anchor-id="a313x.7781069.0.i21" class=""></path><path d="M513.074627 1024c-282.746269 0-512-229.253731-512-512S230.328358 0 513.074627 0s512 229.253731 512 512-229.253731 512-512 512z m0-978.149254C256.310448 45.850746 46.925373 255.235821 46.925373 512S256.310448 978.149254 513.074627 978.149254 979.223881 768.764179 979.223881 512 769.838806 45.850746 513.074627 45.850746z" fill="#00cc66" p-id="29649" data-spm-anchor-id="a313x.7781069.0.i16" class=""></path><path d="M690.364179 689.289552v-145.19403l48.907463-16.81194 32.095522 32.095522v129.910448l-81.002985 16.811941v-16.811941zM513.074627 770.292537h48.907463v-48.907462H497.791045l15.283582 48.907462zM270.065672 640.38209s64.191045-51.964179 81.002985 16.81194v-113.098508L270.065672 527.283582v113.098508z" fill="#ffffff" p-id="29650" data-spm-anchor-id="a313x.7781069.0.i19" class="selected"></path><path d="M523.773134 802.38806c-24.453731 0-45.850746-15.283582-55.020895-38.208956h-96.286567c-100.871642 0-131.438806-74.889552-134.495523-114.626865v-90.173135c0-16.81194 6.113433-32.095522 18.340299-44.322388v-7.641791c0-35.152239 7.641791-71.832836 21.397015-103.928358 13.755224-32.095522 32.095522-61.134328 56.549253-87.116418 24.453731-24.453731 51.964179-45.850746 84.059702-59.60597 32.095522-13.755224 67.247761-21.397015 103.928358-21.397015 35.152239 0 70.304478 7.641791 103.928358 21.397015 32.095522 13.755224 59.60597 33.623881 84.059702 58.077612 24.453731 24.453731 44.322388 53.492537 56.549254 85.58806 13.755224 32.095522 21.397015 68.776119 21.397014 103.928358v12.226866c10.698507 10.698507 15.283582 24.453731 15.283583 39.737313v111.570149c0 32.095522-25.98209 59.60597-59.605971 59.60597h-18.340298c-32.095522 0-59.60597-25.98209-59.60597-59.60597v-111.570149c0-32.095522 25.98209-59.60597 59.60597-59.60597h18.340298c-4.585075-120.740299-100.871642-217.026866-221.61194-218.555224-120.740299 1.528358-218.555224 99.343284-221.61194 220.083582h18.340298c33.623881 0 61.134328 27.510448 61.134329 61.134328V649.552239c0 12.226866-9.170149 21.397015-21.397015 21.397015-12.226866 0-21.397015-9.170149-21.397015-21.397015v-88.644776c0-9.170149-7.641791-16.81194-16.81194-16.811941H299.104478c-9.170149 0-16.81194 7.641791-16.811941 16.811941V649.552239c0 7.641791 7.641791 71.832836 90.173135 71.832836h96.286567c12.226866-30.567164 45.850746-45.850746 76.41791-33.623881 30.567164 12.226866 45.850746 45.850746 33.623881 76.41791-9.170149 22.925373-30.567164 38.208955-55.020896 38.208956z m0-74.889553c-7.641791 0-13.755224 6.113433-15.283582 13.755224v6.113433c1.528358 9.170149 9.170149 13.755224 18.340299 12.226866 9.170149-1.528358 13.755224-9.170149 12.226865-18.340299-1.528358-7.641791-7.641791-13.755224-15.283582-13.755224zM725.516418 542.567164c-9.170149 0-15.283582 7.641791-15.283582 15.283582v111.57015c0 9.170149 7.641791 15.283582 15.283582 15.283582h18.340298c9.170149 0 15.283582-7.641791 15.283583-15.283582V557.850746c0-9.170149-7.641791-15.283582-15.283583-15.283582h-18.340298z" fill="#00cc66" p-id="29651" data-spm-anchor-id="a313x.7781069.0.i17" class=""></path></svg>