<?xml version="1.0" standalone="no"?><!DOCTYPE svg PUBLIC "-//W3C//DTD SVG 1.1//EN" "http://www.w3.org/Graphics/SVG/1.1/DTD/svg11.dtd"><svg t="1554778042354" class="icon" style="" viewBox="0 0 1024 1024" version="1.1" xmlns="http://www.w3.org/2000/svg" p-id="2788" xmlns:xlink="http://www.w3.org/1999/xlink" width="48" height="48"><defs><style type="text/css"></style></defs><path d="M911.8 693.7H372.1c-38.5 0-72-27.4-79.7-65L191.7 136.9c-3.9-19.1-20.9-33-40.4-33H90.2c-11.1 0-20-9-20-20s9-20 20-20h61.1c38.5 0 72 27.3 79.7 65l100.7 491.8c3.9 19.1 20.9 33 40.4 33h539.8c11.1 0 20 9 20 20s-9 20-20.1 20z" fill="#272635" p-id="2789"></path><path d="M290.4 539.4c-9.5 0-17.7-6.7-19.6-16l-69.4-339c-1.2-5.9 0.3-12 4.1-16.7 3.8-4.7 9.5-7.4 15.5-7.4h650.2c23.1 0 45.4 9.8 61 26.9 15.6 17.1 23.3 40.1 21.2 63.1l-16.8 185.5c-3.7 40.7-37.3 72.9-78.1 75l-567.2 28.6c-0.2-0.1-0.5 0-0.9 0z m-44.8-339.1l61 298.1 550-27.8c21-1.1 38.3-17.7 40.2-38.6l16.8-185.5c1.1-12-2.8-23.6-10.9-32.5-8.1-8.9-19.3-13.8-31.4-13.8H245.6zM448.2 960.1c-58.4 0-105.9-47.5-105.9-105.9s47.5-105.9 105.9-105.9 105.9 47.5 105.9 105.9-47.6 105.9-105.9 105.9z m0-171.7c-36.3 0-65.8 29.5-65.8 65.8s29.5 65.8 65.8 65.8 65.8-29.5 65.8-65.8-29.6-65.8-65.8-65.8zM809 960.1c-58.4 0-105.9-47.5-105.9-105.9S750.6 748.3 809 748.3s105.9 47.5 105.9 105.9S867.4 960.1 809 960.1z m0-171.7c-36.3 0-65.8 29.5-65.8 65.8S772.7 920 809 920s65.8-29.5 65.8-65.8-29.6-65.8-65.8-65.8z" fill="#272635" p-id="2790"></path></svg>