<?xml version="1.0" standalone="no"?><!DOCTYPE svg PUBLIC "-//W3C//DTD SVG 1.1//EN" "http://www.w3.org/Graphics/SVG/1.1/DTD/svg11.dtd"><svg t="1555506167571" class="icon" style="" viewBox="0 0 1025 1024" version="1.1" xmlns="http://www.w3.org/2000/svg" p-id="3256" xmlns:xlink="http://www.w3.org/1999/xlink" width="64.0625" height="64"><defs><style type="text/css"></style></defs><path d="M512.000713 0C229.681563 0 0 229.687268 0 512.004991c0 282.31915 229.681563 511.995009 512.000713 511.995009 282.31915 0 512.000713-229.675859 512.000713-511.995009C1024 229.687268 794.312732 0 512.000713 0L512.000713 0 512.000713 0zM512.000713 990.007328c-263.572981 0-478.008041-214.427929-478.008041-478.002337 0-263.58439 214.433634-478.013746 478.008041-478.013746S990.007328 248.420601 990.007328 512.004991C990.007328 775.579399 775.573694 990.007328 512.000713 990.007328L512.000713 990.007328 512.000713 990.007328zM512.000713 990.007328" p-id="3257" fill="#CECECE"></path><path d="M783.542777 634.230865c-46.737784 103.422661-150.867794 175.573661-271.542064 175.573661-61.85879 0-119.369382-18.965789-167.034136-51.376908-2.870752 3.35135-5.828497 6.634247-8.87466 9.845838 50.062038 34.470417 110.665855 54.685475 175.908796 54.685475 125.95942 0 234.638709-75.294139 283.468592-183.224722C791.449111 637.997212 787.473126 636.161813 783.542777 634.230865z" p-id="3258" fill="#CECECE"></path><path d="M512.000713 82.658552c-236.737938 0-429.342161 192.602797-429.342161 429.347866 0 236.733659 192.602797 429.336457 429.342161 429.336457 236.739364 0 429.342161-192.602797 429.342161-429.336457C941.341448 275.261349 748.738651 82.658552 512.000713 82.658552zM512.000713 915.671533c-222.583832 0-403.672246-181.085562-403.672246-403.666542 0-222.589536 181.086988-403.677951 403.672246-403.677951 222.585258 0 403.672246 181.086988 403.672246 403.677951C915.671533 734.585971 734.585971 915.671533 512.000713 915.671533z" p-id="3259" fill="#CECECE"></path><path d="M240.102123 603.277226l15.865433-4.596341 7.32163 25.274883 110.32359-31.957618-13.733404-47.412333-133.015794 38.531968-3.954593-13.652116 148.513292-43.021351 24.904096 85.972823-15.496072 4.487957-3.260079-11.254832-110.32359 31.957618 15.55169 53.685775c3.277192 11.31758 10.26654 15.423341 20.968042 12.324411l90.952787-26.347315c10.576005-3.06185 15.868286-8.727771 15.872564-16.99491 0.041357-8.144494-1.203634-18.649193-3.729268-31.515525 5.403517 0.701644 11.224883 1.013962 17.469803 0.938378 1.982288 13.291311 3.094651 24.032745 3.337089 32.228578 0.335135 14.96556-7.981917 24.9098-24.955436 29.825589l-98.148919 28.432283c-18.816048 5.450579-31.040631-1.541621-36.669473-20.973747L240.102123 603.277226z" p-id="3260" fill="#CECECE"></path><path d="M293.146149 724.828551c-13.803284 0-23.222716-8.351279-27.993042-24.822808l-28.58345-98.672301 21.344534-6.183597 7.32163 25.274883 104.844489-30.370361-12.147574-41.933232-133.015794 38.531968-5.541849-19.131217 153.992393-44.608608 26.491352 91.451924-20.975173 6.076639-3.260079-11.254832-104.844489 30.370361 14.757349 50.946224c2.924944 10.098259 8.157329 11.264814 11.839535 11.264814 1.679953 0 3.562414-0.298056 5.594615-0.887038l90.952787-26.347315c9.292509-2.691063 13.81184-7.354431 13.814693-14.256785 0.039931-7.924873-1.196503-18.336876-3.676502-30.963622l-0.764393-3.890418 3.930349 0.510546c5.240941 0.681679 10.96961 0.981161 17.067641 0.91556l2.488556-0.029948 0.366509 2.46146c1.990845 13.344077 3.123173 24.300853 3.367037 32.565139 0.367935 16.371701-8.720641 27.351294-27.011881 32.649279l-98.148919 28.432283C300.995439 724.188229 296.886826 724.828551 293.146149 724.828551zM243.636014 605.223861l26.996194 93.194626c5.199584 17.951827 15.960983 24.00137 33.135582 19.028537l98.148919-28.432283c15.71284-4.550705 23.202751-13.391139 22.897564-27.021864-0.221046-7.515581-1.213617-17.414185-2.947762-29.430557-3.983115-0.018539-7.829324-0.199655-11.484435-0.540494 2.06928 11.307597 3.097503 20.80404 3.060424 28.268281-0.002852 6.622838-3.117469 15.430471-17.931862 19.720199l-90.951361 26.347315c-2.548452 0.738723-4.965702 1.112363-7.183298 1.112363-5.868428 0-13.636429-2.668245-17.318636-15.381983l-16.344605-56.423899 115.804116-33.544874 3.260079 11.254832 10.016971-2.9007-23.316839-80.493722-143.032766 41.434095 2.367337 8.173016 133.015794-38.531968 15.320661 52.891433-115.804116 33.544874-7.32163-25.274883L243.636014 605.223861z" p-id="3261" fill="#CECECE"></path><path d="M467.868425 489.106001l-0.770097 5.623137c15.125284 9.882917 30.179263 20.651447 45.154806 32.311292l-8.182998 13.168666c-13.797579-11.732577-26.922036-22.063292-39.370519-30.987866C461.018836 532.418278 455.079103 555.867745 446.881843 579.57106c-3.670798-3.466865-7.93343-6.899503-12.780765-10.295062C443.551885 546.67649 450.012147 521.34171 453.479012 493.27451L467.868425 489.106001zM466.078661 627.204439l8.532394-11.270519c7.61826 5.126852 15.09391 10.226609 22.429801 15.300695 3.081816-13.292738 5.584633-28.815906 7.507024-46.569504L450.310203 600.376526l-3.687911-12.730852 69.183273-20.041073 3.687911 12.730852c-3.29288 23.619174-6.75404 43.417809-10.389185 59.400183 6.507323 4.515053 12.907689 9.124229 19.205375 13.833232l-10.16386 12.542606C500.606123 651.596562 483.251835 638.627551 466.078661 627.204439zM462.320871 544.505956l9.781664-9.034384c8.064632 7.130532 15.901086 14.858602 23.513642 23.184211l-10.807034 10.329289C479.331468 562.04136 471.835853 553.882605 462.320871 544.505956zM514.427946 522.812026l32.653558-9.459364L544.373328 486.742943l-46.123133 13.359765-3.740677-12.913393 106.082349-30.728314 3.740677 12.914819-45.015048 13.040317 1.972305 26.825061 41.69222-12.079121 25.545844 88.18614-13.281329 3.847635-21.857933-75.455289L531.397186 531.695242l22.071848 76.192586-13.282755 3.846209L514.427946 522.812026zM557.573369 532.31132l13.282755-3.847635 8.016144 27.672168c3.953167 13.652116 5.881263 25.826787 5.778583 36.519732 21.611216 7.873533 42.485135 16.424467 62.623183 25.652802l-7.700974 14.827228c-17.940418-9.466494-36.803527-18.19997-56.583623-26.201853-0.293778 1.286348-0.607521 2.511373-0.935526 3.672224C577.573084 626.434341 566.321105 642.824582 548.303677 659.776709c-5.554684-3.98882-10.175269-7.05067-13.857476-9.182699 17.850574-14.767332 28.897194-29.099701 33.137008-42.992829 4.262632-12.432795 3.56384-28.429431-2.102081-47.984201L557.573369 532.31132z" p-id="3262" fill="#CECECE"></path><path d="M518.545115 670.147354l-2.220448-1.836825c-17.382811-14.389413-34.82124-27.419747-51.826132-38.731623l-2.524208-1.678527 11.992129-15.839764 2.237561 1.507394c6.408922 4.312546 12.776487 8.646483 18.975772 12.917672 2.393007-11.117925 4.425208-23.824533 6.0581-37.89022l-52.875746 15.316383-5.275168-18.209952 4.690464-1.359079-2.855065-2.696767c-3.555283-3.357054-7.74661-6.732648-12.458465-10.032658l-1.881034-1.317722 0.885612-2.117768C440.776682 545.922079 447.229813 520.602987 450.649617 492.925114l0.231029-1.866773 20.410435-5.912637-1.12092 8.185851c13.784744 9.062906 27.655055 18.970067 41.291484 29.486176l-0.564738-1.950914 33.109912-9.591992-2.122046-20.841119-45.576934 13.201467-5.327933-18.392494 111.56145-32.315571 5.327933 18.39392-45.535577 13.190058 1.544473 21.007973 41.051898-11.892301 27.1331 93.665241-18.760429 5.436318-21.857933-75.455289L534.931078 533.640451l22.071848 76.192586-18.761856 5.434891L513.613639 530.254875l-8.868956 14.272473-2.522782-2.144864c-12.308724-10.466195-24.219565-19.918428-35.460135-28.142783-1.564439 9.128507-3.485404 18.341154-5.755765 27.598011l11.053751-10.208069 1.930948 1.707049c8.100284 7.16048 16.083628 15.032587 23.728984 23.395275l1.88246 2.057872L484.512513 573.214903l-1.942357-2.464312c-5.379273-6.818215-12.864906-14.96556-22.251538-24.21386l-0.393605-0.386475C456.99579 557.571942 453.540334 569.046394 449.578611 580.503733l-1.274939 3.686485 69.447102-20.116657 4.651959 16.055106-0.085566 0.603243c-3.161678 22.680796-6.527289 42.100086-10.011267 57.761587 5.811384 4.055847 11.602802 8.235764 17.245904 12.448483l3.074685-2.544174c17.330045-14.338074 28.174158-28.343864 32.228578-41.628045 4.08009-11.90371 3.358481-27.469661-2.112064-46.35844l-8.703527-30.042357 18.761856-5.436318 8.810485 30.411719c3.769199 13.011795 5.745783 24.881278 5.886967 35.318951 20.928111 7.678157 41.42839 16.103593 60.963196 25.055263l2.723863 1.249269-10.406298 20.033942-2.538469-1.339114c-16.845169-8.887495-34.755639-17.237348-53.285039-24.842773-0.05134 0.191098-0.104106 0.38077-0.156872 0.56759-4.603471 16.254761-16.223386 33.236835-34.541723 50.469905l-1.709902 1.608648-1.90813-1.370488c-5.454857-3.916088-10.038363-6.955121-13.622168-9.031532l-2.776629-1.607222 2.151995 1.608648L518.545115 670.147354zM470.177291 626.514203c15.644387 10.534648 31.618205 22.481141 47.562074 35.567093l6.481654-7.997605c-5.494788-4.070108-11.115073-8.098858-16.743915-12.003537l-1.581552-1.099528 0.426406-1.876756c3.566692-15.682892 7.019296-35.384552 10.260835-58.560206l-2.723863-9.406598L450.154758 589.592309l2.100655 7.251751 55.586775-16.102167-0.45778 4.231258c-1.92667 17.780694-4.470844 33.561988-7.564068 46.906065l-0.948361 4.091499-3.452604-2.390154c-6.552959-4.533592-13.325538-9.159881-20.162292-13.771909L470.177291 626.514203zM539.316355 650.213239c2.574122 1.625761 5.493362 3.590936 8.724919 5.875558 16.577061-15.952426 27.091743-31.505542 31.267382-46.258613 0.3223-1.135181 0.624635-2.323127 0.899873-3.531039l0.745854-3.264358 3.104634 1.254974c18.854552 7.628243 37.108714 16.029436 54.301853 24.989662l4.998503-9.62194c-19.159739-8.692118-39.22363-16.869412-59.685404-24.32367l-1.895295-0.688809 0.019965-2.017941c0.099827-10.362089-1.806877-22.372757-5.665921-35.698295l-7.221803-24.932618-7.80508 2.260379 7.114845 24.564682c5.804253 20.038221 6.498767 36.760744 2.059298 49.704086C566.17279 621.990594 555.753657 636.026333 539.316355 650.213239zM517.960412 524.757235l24.169651 83.444337 7.80508-2.258953L527.86472 529.750033l67.469093-19.544788 21.857933 75.455289 7.803654-2.260379-23.958587-82.70704-42.333968 12.264515-2.400137-32.639297 44.495945-12.889149-2.153421-7.434293L498.041984 489.134523l2.153421 7.434293 46.667905-13.518062 3.295732 32.379745L517.960412 524.757235zM437.603595 568.270593c2.859343 2.073559 5.526162 4.175639 7.973361 6.286277C452.977022 552.47076 458.457549 530.363259 461.88163 508.776287l0.723036-4.56354 3.754938 2.692489c11.689794 8.379801 24.133998 18.124386 37.030278 28.994169l5.082643-8.17872C494.297028 516.763908 479.863406 506.475977 465.538167 497.116441l-1.511673-0.986866 0.419275-3.063277-8.374097 2.425807C452.644739 522.09612 446.435472 546.558123 437.603595 568.270593zM466.445171 544.580113c7.515581 7.50132 13.766205 14.276751 18.637784 20.199371l6.537272-6.249198c-6.320503-6.796823-12.857775-13.239972-19.484891-19.206801L466.445171 544.580113z" p-id="3263" fill="#CECECE"></path><path d="M662.557616 578.28899c5.213845-2.244691 10.544631-4.554984 15.989505-6.932303L645.494253 457.251063l-13.83751 4.008785-3.740677-12.914819 90.399457-26.186165 1.872478 6.455984 80.61922-23.353918 3.367037 11.621341c6.012465 47.452264 5.178192 83.920656-2.501391 109.408029 16.377406 13.053152 34.034029 21.77094 52.967017 26.149087-2.41012 4.564967-4.843057 10.202365-7.297386 16.912196-15.941017-5.780009-32.800447-15.426193-50.578289-28.941403-7.702401 19.89561-18.363972 38.313774-31.98614 55.257344-4.841631-3.59664-9.099985-6.561515-12.776487-8.897478l3.312845 11.438799-13.836084 4.008785-11.570001-39.942388c-21.430101 10.008415-41.884744 19.698807-61.365358 29.075457L662.557616 578.28899zM667.507631 481.469202l35.97496-10.420559-8.175868-28.226924-35.976386 10.420559L667.507631 481.469202zM679.101876 521.50286l35.976386-10.420559-8.175868-28.226924L670.926008 493.275936 679.101876 521.50286zM726.300293 549.823907l-7.802228-26.934871-35.976386 10.420559 9.32531 32.192925C702.866513 560.511148 714.350948 555.285894 726.300293 549.823907zM722.344274 441.588137l-1.764094-6.088048-11.438799 3.312845 30.38177 104.881568c6.565794-3.104634 13.247102-6.27059 20.043925-9.506425 1.092397 5.14967 2.136307 9.445103 3.133156 12.890576-6.645656 3.060424-13.168666 6.080918-19.570458 9.065758l8.6037 29.702944c14.296716-15.073944 25.47026-33.339515 33.519204-54.802416-20.762683-18.515139-39.486033-48.985328-56.175756-91.410567L722.344274 441.588137zM790.604856 421.813745l-48.152482 13.948747c13.309851 35.137835 29.203806 61.92867 47.679015 80.37393C795.611915 495.018638 795.768787 463.578697 790.604856 421.813745z" p-id="3264" fill="#CECECE"></path><path d="M739.531708 605.752947l-11.437373-39.480329c-20.222188 9.455085-39.826873 18.750447-58.317768 27.649351l-2.619757 1.262104-8.409749-18.359694 2.68108-1.155146c4.475122-1.928096 9.03581-3.901827 13.680639-5.925472L643.549044 460.783528l-13.83751 4.008785-5.327933-18.39392 95.877132-27.773422 1.872478 6.455984 80.61922-23.353918 4.251223 14.795854c5.889819 46.485364 5.198158 83.043601-2.053593 108.716368 15.555968 12.079121 32.480999 20.292068 50.331573 24.420646l3.609475 0.834272-1.729867 3.275766c-2.341667 4.433765-4.74323 10.005562-7.141941 16.559947l-0.976883 2.672523-2.673949-0.971178c-15.237947-5.52331-31.481298-14.634704-48.335024-27.103152-7.66247 18.773264-18.093012 36.428461-31.034927 52.524924l-1.719884 2.140586-2.20476-1.63717c-2.159125-1.60437-4.214144-3.090373-6.153649-4.450878l1.92667 6.648508L739.531708 605.752947zM731.719497 558.28357l11.704055 40.40302 8.356983-2.420103-12.070564-41.672255 2.213317-1.032501c5.695869-2.656836 11.488713-5.342195 17.379958-8.056075-0.571869-2.13916-1.159424-4.545001-1.755537-7.196133-5.683034 2.702472-11.28478 5.356456-16.805238 7.96623l-3.026198 1.430385L705.607489 436.867724l16.916474-4.900102 1.764094 6.088048 6.491636-1.879608 0.951213 2.418676c16.444433 41.806309 35.090774 72.196636 55.418494 90.3253l1.457481 1.299183-0.684531 1.829694c-7.785115 20.761257-18.619245 38.820042-32.222874 53.722853 2.605496 1.72131 5.467692 3.719285 8.55236 5.969681 12.57398-16.062236 22.610917-33.663241 29.849833-52.35807l1.369062-3.535318 3.016215 2.293179c16.482938 12.528345 32.339814 21.782349 47.179877 27.538114 1.605796-4.20844 3.217296-7.999031 4.815961-11.324711-17.964662-4.700447-34.968128-13.381156-50.589698-25.831065l-1.511673-1.20506 0.557608-1.84966c7.517007-24.944027 8.334166-61.28407 2.430085-108.006167l-2.511373-8.667875-80.61922 23.353918-1.872478-6.455984L631.448531 450.291664l2.153421 7.434293 13.83751-4.008785 34.543149 119.24959-2.294605 1.002553c-4.520757 1.973731-8.960226 3.900401-13.322686 5.782861l3.559562 7.769428c18.662028-8.968783 38.419306-18.324041 58.775548-27.830466L731.719497 558.28357zM746.548151 557.698866l6.510176 22.476863c11.989276-13.582237 21.672539-29.808476 28.835871-48.325041-20.033942-18.489469-38.357983-48.325041-54.514343-88.752305l-6.982217 2.022219-1.764094-6.088048-5.959699 1.725589 28.656182 98.926147c5.587485-2.644001 11.257684-5.333638 17.010597-8.071762l3.265784-1.554456 0.748706 3.536744c1.072432 5.052695 2.109211 9.321031 3.083242 12.689495l0.683105 2.355928-2.229004 1.026797C758.015473 552.376637 752.234037 555.052012 746.548151 557.698866zM690.025851 569.459965l-11.035211-38.09558 41.45406-12.007816 9.2811 32.038906-2.238987 1.023944c-11.952198 5.463414-23.439484 10.690093-34.460435 15.682892L690.025851 569.459965zM686.055571 535.254804l7.615408 26.290271c9.400893-4.261206 19.136922-8.692118 29.205233-13.291311l-6.323356-21.830836L686.055571 535.254804zM677.156667 525.035325l-9.76455-33.706024 41.45406-12.007816 9.76455 33.706024L677.156667 525.035325zM674.4599 495.221145l6.588611 22.747823 30.497285-8.833303-6.588611-22.747823L674.4599 495.221145zM791.640209 521.673993l-3.525335-3.519631C769.438585 499.508021 753.17812 472.126779 739.785555 436.773601l-1.09525-2.889292 54.334653-15.739936 0.410719 3.319976c5.183897 41.928954 5.001355 74.022052-0.544773 95.387978L791.640209 521.673993zM746.227277 437.637822c11.994981 30.902299 26.206131 55.328649 42.308298 72.727147 4.065829-19.985455 3.947462-48.486191-0.359379-84.877574L746.227277 437.637822zM665.560996 485.003093l-9.765976-33.706024 41.45406-12.007816 9.76455 33.706024L665.560996 485.003093zM662.862803 455.188913l6.590038 22.747823 30.495859-8.833303-6.588611-22.747823L662.862803 455.188913z" p-id="3265" fill="#CECECE"></path><path d="M296.514613 362.621774 440.059351 392.724028c0 0 30.093697-111.649869 161.871631-244.273484 0 0-118.035973 155.300133-141.924681 304.476565C460.007727 452.927108 396.041151 398.994617 296.514613 362.621774z" p-id="3266" fill="#CECECE"></path><path d="M691.277972 255.90766 699.017452 271.587699 716.3204 274.101925 703.800613 286.306543 706.755505 303.541039 691.277972 295.403676 675.801866 303.541039 678.756758 286.306543 666.23697 274.101925 683.539919 271.587699Z" p-id="3267" fill="#CECECE"></path><path d="M212.139029 387.504478 228.698976 393.119059 242.711897 382.662847 242.489425 400.145485 256.76475 410.242318 240.06647 415.431919 234.876869 432.128773 224.780036 417.853448 207.297397 418.077347 217.753609 404.062999Z" p-id="3268" fill="#CECECE"></path></svg>