<?xml version="1.0" standalone="no"?><!DOCTYPE svg PUBLIC "-//W3C//DTD SVG 1.1//EN" "http://www.w3.org/Graphics/SVG/1.1/DTD/svg11.dtd"><svg t="1556278670856" class="icon" style="" viewBox="0 0 1024 1024" version="1.1" xmlns="http://www.w3.org/2000/svg" p-id="1974" xmlns:xlink="http://www.w3.org/1999/xlink" width="64" height="64"><defs><style type="text/css"></style></defs><path d="M951.8 371.4c-12.2-29.8-50.1-113.5-80.6-180.7-18.5-40.8-34.4-76-40.6-90.1l-5.2-11.9H203.9l-5.2 11.8c-4.8 10.9-15.5 34-28.7 62.4-32.8 70.8-77.6 167.7-91.5 204.7-23.8 63.4-9.4 155.1 64.1 200.1 66.5 40.7 158.3 25 234.3-38.3 33.4 45.9 82 72 136.2 72.4h1.4c54.5 0 105.5-26.3 140.9-71.6 60.4 67.5 141.1 84.4 220.4 44.8 91.2-45.6 99.4-146.5 76-203.6z m-93.7 168.3c-70.4 35.3-137.3 16-188.1-54.2l-17.7-24.4-15.3 26c-28 47.5-74 75.8-123.6 75.3C466 562 424 535.5 398 489.6l-12.6-22.2-18.3 17.8c-65.8 63.7-147.7 83.4-203.9 49-58.9-36.1-63.4-111-47.8-152.6 13.4-35.7 59.7-135.8 90.4-202 9.6-20.8 18-38.8 23.7-51.3h570.2c7.9 17.8 21 46.6 35.6 78.8 30.3 66.9 68.1 150.2 80 179.3 13.8 33.7 18 115.7-57.2 153.3zM853.8 648c-10.9 0-19.7 8.8-19.7 19.7v232.4H178V667.7c0-10.9-8.8-19.7-19.7-19.7s-19.7 8.8-19.7 19.7v271.9h735V667.7c-0.1-10.9-8.9-19.7-19.8-19.7z" fill="#00CC66" p-id="1975"></path><path d="M694 297.4H337c-10.9 0-19.7 8.8-19.7 19.7s8.8 19.7 19.7 19.7h357c10.9 0 19.7-8.8 19.7-19.7s-8.8-19.7-19.7-19.7z" fill="#00CC66" p-id="1976"></path></svg>