<?xml version="1.0" standalone="no"?><!DOCTYPE svg PUBLIC "-//W3C//DTD SVG 1.1//EN" "http://www.w3.org/Graphics/SVG/1.1/DTD/svg11.dtd"><svg t="1556084949811" class="icon" style="" viewBox="0 0 1059 1024" version="1.1" xmlns="http://www.w3.org/2000/svg" p-id="3765" xmlns:xlink="http://www.w3.org/1999/xlink" width="66.1875" height="64"><defs><style type="text/css"></style></defs><path d="M333.380624 990.01828c264.031532 101.089214 559.926784-30.98903 661.015998-295.020562 101.089214-263.906576-30.98903-559.926784-295.020562-661.015998C435.469484-67.107494 139.449277 64.97075 38.485018 329.002282c-101.089214 264.031532 30.98903 559.926784 294.895606 661.015998zM684.131457 73.842609c242.039317 92.592222 362.996498 363.871188 270.404276 605.910506S590.664545 1042.749613 348.625228 950.157391C106.710866 857.565169-14.37127 586.286202 78.220952 344.246885 170.93813 102.332524 442.217096-18.749613 684.131457 73.842609z m0 0" p-id="3766" fill="#00cc66"></path><path d="M265.029821 710.742145c31.488853 34.862658 69.100538 94.966382 132.952934 21.492391 63.977352-73.47399 35.237526-96.090983 2.749027-131.953288-22.741949-25.116109 29.864428-83.970274 84.345141-134.452403 54.480714-50.357173 117.083552-98.090276 139.825501-72.974167 32.488499 35.98726 52.106554 66.97629 130.078952 8.996815 77.972397-57.979475 22.242126-101.089214-9.246727-135.951873-36.362128-40.235756-180.186213-9.74655-327.259149 126.330279C271.52752 528.306727 228.792649 670.506388 265.029821 710.742145z m0 0M786.970052 583.037352c-8.372036-9.871505-17.99363-18.618409-28.864782-25.740887-21.24248-13.995046-46.6085-22.242126-73.973813-22.242126-27.240357 0-52.731333 8.247081-73.848857 22.242126-36.237172 23.991507-60.353635 65.226909-60.353635 111.83541 0 73.973813 60.228679 134.202492 134.202492 134.202491 41.235403 0 78.097353-18.743365 102.838595-48.107969 19.618055-23.366728 31.363897-53.356112 31.363897-86.094522 0-32.73841-11.870798-62.727794-31.363897-86.094523z m-102.838595 201.053827c-63.352573 0-114.959304-51.606731-114.959304-114.959304 0-54.605669 38.36142-100.339479 89.593284-111.960366 8.247081-1.874336 16.619117-2.998938 25.36602-2.998938s17.11894 1.124602 25.36602 2.998938c34.112924 7.747257 62.352927 30.739118 77.472575 61.478237 7.497346 15.244603 12.120709 32.238587 12.120709 50.482129 0 18.118586-4.623363 35.11257-12.120709 50.482129-18.868321 37.986553-57.604608 64.477175-102.838595 64.477175z m0 0" p-id="3767" fill="#00cc66"></path><path d="M735.238365 633.519482l-70.22514 70.974874-31.113986-31.86372c-3.748673-3.748673-9.74655-3.873629-13.620178-0.249911-3.748673 3.748673-3.873629 9.74655-0.249911 13.620178l37.861596 38.986199h0.124956c0.624779 0.624779 1.249558 0.87469 1.874337 1.374513 0.374867 0.249912 0.749735 0.624779 1.249557 0.749735 1.124602 0.499823 2.37416 0.749735 3.623717 0.749734s2.499115-0.249912 3.623718-0.749734c0.374867-0.124956 0.624779-0.499823 0.999646-0.624779 0.749735-0.374867 1.499469-0.749735 2.124248-1.499469h0.124956l77.097707-77.972398c3.748673-3.748673 3.748673-9.871505-0.124956-13.620178-3.623717-3.748673-9.621594-3.748673-13.370267 0.124956z m0 0" p-id="3768" fill="#00cc66"></path></svg>