<?xml version="1.0" standalone="no"?><!DOCTYPE svg PUBLIC "-//W3C//DTD SVG 1.1//EN" "http://www.w3.org/Graphics/SVG/1.1/DTD/svg11.dtd"><svg t="1554812168230" class="icon" style="" viewBox="0 0 1024 1024" version="1.1" xmlns="http://www.w3.org/2000/svg" p-id="2103" xmlns:xlink="http://www.w3.org/1999/xlink" width="64" height="64"><defs><style type="text/css"></style></defs><path d="M764.416 518.144c-33.28 0-60.416-27.648-60.416-61.44s27.136-61.44 60.416-61.44c33.28 0 60.416 27.648 60.416 61.44 0 34.304-27.136 61.44-60.416 61.44z" fill="#2c2c2c" p-id="2104"></path><path d="M814.592 457.216c0 28.16-22.528 51.2-50.176 51.2s-50.176-23.04-50.176-51.2 22.528-51.2 50.176-51.2 50.176 23.04 50.176 51.2zM523.264 518.144c-33.28 0-60.416-27.648-60.416-61.44s27.136-61.44 60.416-61.44c33.28 0 60.416 27.648 60.416 61.44 0.512 34.304-27.136 61.44-60.416 61.44z" fill="#2c2c2c" p-id="2105"></path><path d="M573.952 457.216c0 28.16-22.528 51.2-50.176 51.2s-50.176-23.04-50.176-51.2 22.528-51.2 50.176-51.2c27.136 0 50.176 23.04 50.176 51.2zM282.624 523.776h-5.632c-17.92-1.536-33.792-9.728-45.056-23.552-11.264-13.312-16.896-30.72-15.36-48.64 1.536-17.92 9.728-33.792 23.552-45.056 12.288-10.24 27.136-15.872 43.008-15.872h5.632c17.92 1.536 33.792 9.728 45.056 23.552 11.264 13.824 16.896 30.72 15.36 48.64-1.536 17.92-9.728 33.792-23.552 45.056-12.288 10.24-27.136 15.872-43.008 15.872z" fill="#2c2c2c" p-id="2106"></path><path d="M338.432 462.336c-1.536 14.848-8.192 28.16-19.968 37.888-10.24 8.704-23.04 13.312-36.352 13.312h-5.12c-14.848-1.536-28.672-8.192-37.888-19.968-9.728-11.264-14.336-26.112-12.8-40.96 1.024-14.848 8.192-28.672 19.456-38.4 10.24-8.704 23.04-13.312 36.352-13.312h5.12c14.848 1.536 28.16 8.192 37.888 19.968 10.24 11.776 14.848 26.112 13.312 41.472z" fill="#2c2c2c" p-id="2107"></path><path d="M230.912 938.496l-1.536-113.664C118.784 807.936 33.792 711.68 33.792 596.48V331.776c0-127.488 103.424-230.912 230.912-230.912h511.488c127.488 0 230.912 103.424 230.912 230.912v264.704c0 127.488-103.424 230.912-230.912 230.912H479.744c-10.24 0-20.48 3.584-28.672 10.24l-160.768 128.512c-23.552 19.456-58.88 2.56-59.392-27.648z m33.792-765.952c-88.064 0-159.232 71.168-159.232 159.232v264.704c0 88.064 71.168 159.232 159.232 159.232h2.56c17.92 0 32.768 14.336 32.768 32.768l1.024 77.312 124.416-99.328c8.192-6.656 18.432-10.24 28.672-10.24h321.536c88.064 0 159.232-71.168 159.232-159.232V331.776c0-88.064-71.168-159.232-159.232-159.232H264.704z" fill="#2c2c2c" p-id="2108"></path></svg>