<?xml version="1.0" standalone="no"?><!DOCTYPE svg PUBLIC "-//W3C//DTD SVG 1.1//EN" "http://www.w3.org/Graphics/SVG/1.1/DTD/svg11.dtd"><svg t="1555743269554" class="icon" style="" viewBox="0 0 1024 1024" version="1.1" xmlns="http://www.w3.org/2000/svg" p-id="8716" xmlns:xlink="http://www.w3.org/1999/xlink" width="64" height="64"><defs><style type="text/css"></style></defs><path d="M512 514m-448 0a448 448 0 1 0 896 0 448 448 0 1 0-896 0Z" fill="#00CC66" p-id="8717" data-spm-anchor-id="a313x.7781069.0.i10" class="selected"></path><path d="M648.7 280.5H516.17a5.36 5.36 0 0 0-5.32 4.43 26.89 26.89 0 0 1-53 0 5.36 5.36 0 0 0-5.32-4.43h-132.3a5.41 5.41 0 0 0-5.41 5.41l79.08 368.53a5.93 5.93 0 0 0 5.93 5.93h131.33a5.91 5.91 0 0 0 5.82-4.86 26.89 26.89 0 0 1 52.89 0 5.91 5.91 0 0 0 5.82 4.86h131.58a5.93 5.93 0 0 0 5.93-5.93l-79.1-368.53a5.41 5.41 0 0 0-5.4-5.41z" fill="#D1F0C7" p-id="8718"></path><path d="M648.7 280.5H516.17a5.36 5.36 0 0 0-5.32 4.43 26.89 26.89 0 0 1-53 0 5.36 5.36 0 0 0-5.32-4.43h-132.3a5.41 5.41 0 0 0-5.41 5.41v451.66a5.93 5.93 0 0 0 5.93 5.93h131.33a5.91 5.91 0 0 0 5.82-4.86 26.89 26.89 0 0 1 52.89 0 5.91 5.91 0 0 0 5.82 4.86h131.58a5.93 5.93 0 0 0 5.93-5.93V285.91a5.41 5.41 0 0 0-5.42-5.41z" fill="#FFFFFF" p-id="8719"></path><path d="M368.92 570.55h234.16a5.41 5.41 0 0 0 4.85-7.8l-57.57-116.44a5.41 5.41 0 0 0-7.82-2.12L365.95 560.63a5.41 5.41 0 0 0 2.97 9.92z" fill="#00CC66" p-id="8720" data-spm-anchor-id="a313x.7781069.0.i12" class="selected"></path><path d="M365.92 570.55h237.45a5.41 5.41 0 0 0 3.58-9.46l-159.39-141a5.41 5.41 0 0 0-8.31 1.43l-78.05 141a5.41 5.41 0 0 0 4.72 8.03z" fill="#00CC66" p-id="8721" data-spm-anchor-id="a313x.7781069.0.i11" class="selected"></path></svg>